<svg xmlns="http://www.w3.org/2000/svg" xmlns:xlink="http://www.w3.org/1999/xlink" width="400" zoomAndPan="magnify" viewBox="0 0 300 112.499997" height="150" preserveAspectRatio="xMidYMid meet" version="1.0"><defs><g/><clipPath id="847e810003"><path d="M 0.664062 0 L 299.335938 0 L 299.335938 112.003906 L 0.664062 112.003906 Z M 0.664062 0 " clip-rule="nonzero"/></clipPath></defs><g clip-path="url(#847e810003)"><path fill="#ffffff" d="M 0.664062 0 L 299.335938 0 L 299.335938 119.46875 L 0.664062 119.46875 Z M 0.664062 0 " fill-opacity="1" fill-rule="nonzero"/><path fill="#ffffff" d="M 0.664062 0 L 299.335938 0 L 299.335938 112.003906 L 0.664062 112.003906 Z M 0.664062 0 " fill-opacity="1" fill-rule="nonzero"/><path fill="#000000" d="M 0.664062 0 L 299.335938 0 L 299.335938 112.003906 L 0.664062 112.003906 Z M 0.664062 0 " fill-opacity="1" fill-rule="nonzero"/></g><g fill="#ffde59" fill-opacity="1"><g transform="translate(15.233195, 107.017957)"><g><path d="M 10.171875 -0.835938 C 18.394531 -0.835938 26.894531 -9.476562 32.46875 -15.46875 C 35.257812 -18.671875 38.042969 -21.878906 40.691406 -25.222656 C 43.339844 -28.429688 45.988281 -31.773438 48.632812 -35.117188 C 50.445312 -37.625 52.398438 -40.132812 54.207031 -42.78125 C 56.019531 -45.289062 57.972656 -47.796875 60.0625 -50.167969 C 61.316406 -51.699219 62.570312 -52.953125 63.683594 -54.488281 C 64.242188 -55.042969 64.101562 -56.019531 63.40625 -56.4375 C 63.265625 -56.578125 63.128906 -56.578125 62.988281 -56.578125 C 62.707031 -56.578125 62.429688 -56.4375 62.011719 -56.019531 L 60.480469 -54.347656 C 56.714844 -50.027344 53.371094 -45.570312 49.886719 -40.96875 C 44.453125 -33.722656 38.738281 -26.617188 32.746094 -19.648438 C 27.59375 -13.097656 17 -2.785156 8.359375 -2.785156 C 6.550781 -2.785156 5.15625 -3.625 4.179688 -5.433594 C 4.042969 -5.851562 3.902344 -6.132812 3.761719 -6.550781 C 3.625 -6.96875 3.34375 -7.386719 3.207031 -7.804688 C 2.230469 -11.148438 1.8125 -14.632812 2.230469 -18.117188 C 4.042969 -39.160156 16.164062 -61.316406 31.632812 -75.390625 C 33.722656 -77.203125 35.8125 -78.316406 38.042969 -79.011719 C 40.132812 -79.570312 41.804688 -80.265625 43.617188 -80.964844 C 43.894531 -81.105469 44.175781 -81.382812 44.59375 -81.523438 C 44.871094 -81.660156 45.152344 -81.800781 45.289062 -81.941406 C 45.847656 -82.21875 45.988281 -82.777344 45.847656 -83.613281 C 45.707031 -84.449219 45.289062 -84.867188 44.59375 -84.867188 C 43.339844 -84.867188 42.222656 -84.726562 41.109375 -84.308594 C 39.296875 -83.613281 37.484375 -82.636719 35.535156 -81.382812 C 34.140625 -80.40625 32.746094 -79.847656 31.492188 -79.570312 C 26.617188 -78.039062 22.15625 -76.644531 17 -76.644531 C 15.746094 -76.644531 14.769531 -76.921875 13.933594 -77.339844 C 13.515625 -79.011719 14.632812 -80.128906 15.609375 -81.382812 C 21.183594 -89.605469 34.839844 -98.941406 44.871094 -100.335938 L 45.429688 -100.335938 C 46.125 -100.335938 46.683594 -100.195312 46.960938 -99.777344 C 47.242188 -99.359375 47.242188 -99.082031 46.960938 -98.800781 C 46.542969 -98.523438 46.265625 -98.242188 46.125 -97.964844 C 45.988281 -97.6875 45.707031 -97.40625 45.289062 -96.988281 C 45.289062 -96.988281 45.289062 -96.851562 45.152344 -96.710938 L 45.152344 -96.433594 C 45.289062 -96.292969 45.570312 -96.292969 45.707031 -96.152344 C 45.847656 -96.015625 45.847656 -96.015625 45.988281 -96.015625 C 47.660156 -96.433594 48.773438 -97.824219 48.632812 -99.359375 C 48.496094 -101.03125 47.519531 -102.007812 45.988281 -102.285156 C 45.289062 -102.425781 44.730469 -102.5625 44.3125 -102.5625 C 43.617188 -102.5625 42.640625 -102.425781 41.667969 -102.144531 C 40.550781 -101.726562 39.714844 -101.449219 39.019531 -101.308594 C 28.984375 -98.105469 21.183594 -91.832031 14.492188 -83.890625 C 13.796875 -82.914062 13.097656 -81.941406 12.402344 -80.683594 C 10.871094 -77.898438 12.402344 -75.113281 15.609375 -74.554688 C 16.027344 -74.414062 16.582031 -74.414062 17.28125 -74.414062 L 19.507812 -74.414062 C 20.625 -74.414062 21.738281 -74.554688 22.855469 -74.832031 C 23.828125 -74.972656 24.945312 -75.25 25.917969 -75.390625 C 26.335938 -75.53125 26.617188 -75.667969 26.894531 -75.667969 C 27.035156 -75.667969 27.175781 -75.53125 27.3125 -75.25 C 27.730469 -74.832031 27.175781 -74.554688 26.753906 -74.136719 C 12.820312 -60.199219 0.417969 -36.648438 0 -16.445312 C 0 -9.335938 2.367188 -0.835938 10.171875 -0.835938 Z M 10.171875 -0.835938 "/></g></g></g><g fill="#ffde59" fill-opacity="1"><g transform="translate(75.989538, 107.017957)"><g><path d="M -10.171875 -27.730469 C -9.199219 -27.871094 -8.640625 -28.011719 -7.664062 -28.429688 C -4.320312 -29.960938 -1.671875 -31.910156 0.695312 -34.558594 L 3.207031 -37.484375 C 3.625 -37.347656 4.042969 -37.066406 4.320312 -36.789062 C 4.460938 -36.371094 4.738281 -36.09375 5.015625 -35.953125 C 6.550781 -34.421875 7.664062 -34.421875 9.753906 -34.421875 C 12.542969 -34.421875 17.140625 -39.160156 18.8125 -41.25 C 20.625 -43.339844 22.296875 -45.429688 23.96875 -47.519531 C 25.640625 -49.609375 27.3125 -51.699219 29.125 -53.789062 L 29.820312 -54.90625 C 29.960938 -55.460938 29.820312 -56.019531 29.402344 -56.4375 C 29.265625 -56.578125 28.984375 -56.714844 28.707031 -56.714844 C 28.429688 -56.714844 28.011719 -56.4375 27.453125 -55.742188 C 26.894531 -55.042969 26.476562 -54.625 26.335938 -54.488281 C 24.945312 -52.816406 23.550781 -51.144531 22.296875 -49.46875 C 20.902344 -47.660156 19.507812 -45.988281 18.117188 -44.3125 C 15.328125 -41.527344 12.402344 -37.484375 8.777344 -36.230469 C 8.640625 -36.230469 8.5 -36.230469 8.359375 -36.230469 C 8.222656 -36.09375 8.222656 -36.09375 8.082031 -36.09375 C 7.386719 -36.09375 6.828125 -36.511719 6.269531 -37.207031 C 5.296875 -38.738281 4.597656 -40.273438 6.132812 -41.945312 C 6.550781 -42.503906 6.96875 -43.058594 7.246094 -43.757812 C 7.523438 -44.453125 7.941406 -45.011719 8.359375 -45.570312 C 10.589844 -49.050781 12.820312 -52.535156 14.910156 -56.019531 C 17 -59.503906 19.789062 -62.429688 22.992188 -65.078125 C 23.410156 -65.355469 23.410156 -65.914062 22.855469 -66.609375 C 22.714844 -66.75 22.4375 -66.890625 22.296875 -66.890625 C 22.15625 -66.890625 22.019531 -66.890625 22.019531 -66.890625 C 21.878906 -66.75 21.878906 -66.75 21.738281 -66.75 C 18.8125 -64.9375 15.746094 -60.617188 13.65625 -57.832031 C 12.402344 -56.019531 11.148438 -54.347656 10.035156 -52.675781 C 8.777344 -50.863281 7.664062 -49.191406 6.410156 -47.378906 C 6.132812 -46.960938 5.851562 -46.542969 5.714844 -46.125 C 5.433594 -45.707031 5.015625 -45.289062 4.597656 -45.152344 C 4.179688 -45.429688 4.042969 -45.707031 4.042969 -46.125 C 4.042969 -46.40625 4.042969 -46.683594 3.902344 -46.960938 C 3.484375 -50.722656 3.761719 -54.070312 4.179688 -57.832031 C 4.179688 -58.109375 4.179688 -58.390625 4.179688 -58.808594 C 4.179688 -59.085938 4.042969 -59.363281 3.902344 -59.644531 C 3.761719 -59.78125 3.484375 -60.0625 3.066406 -60.199219 C 2.785156 -60.339844 2.507812 -60.0625 2.367188 -59.644531 C 2.230469 -59.226562 2.230469 -58.808594 2.089844 -58.390625 C 1.949219 -57.972656 1.949219 -57.554688 1.949219 -57.136719 C 1.53125 -52.117188 1.394531 -47.242188 2.089844 -42.363281 C 2.230469 -41.386719 2.089844 -40.691406 1.671875 -40.273438 C -0.558594 -37.066406 -3.207031 -34.140625 -6.550781 -32.050781 C -8.082031 -31.074219 -9.335938 -30.238281 -11.007812 -30.238281 L -11.707031 -30.238281 C -12.402344 -30.378906 -12.820312 -29.402344 -12.402344 -28.847656 C -11.984375 -28.148438 -11.148438 -27.730469 -10.171875 -27.730469 Z M -10.171875 -27.730469 "/></g></g></g><g fill="#ffde59" fill-opacity="1"><g transform="translate(102.744625, 107.017957)"><g><path d="M 4.460938 -29.402344 C 9.058594 -29.402344 16.445312 -35.675781 19.371094 -39.296875 C 21.320312 -41.527344 23.132812 -43.894531 24.804688 -46.40625 C 26.476562 -48.773438 28.148438 -51.28125 29.960938 -53.652344 C 30.378906 -54.070312 30.65625 -54.625 30.65625 -55.183594 C 30.519531 -55.742188 30.238281 -56.160156 30.101562 -56.296875 C 29.960938 -56.4375 29.820312 -56.4375 29.683594 -56.4375 C 29.542969 -56.4375 29.265625 -56.296875 28.984375 -56.019531 L 26.476562 -52.953125 C 23.828125 -49.46875 21.320312 -45.847656 18.671875 -42.363281 C 16.027344 -38.460938 8.082031 -31.355469 3.066406 -31.355469 C 0.140625 -31.355469 -0.695312 -35.117188 -0.695312 -37.484375 C -0.835938 -39.578125 -0.558594 -41.25 -0.140625 -43.339844 C 1.394531 -50.304688 5.296875 -60.0625 11.566406 -63.824219 C 11.984375 -64.101562 12.542969 -64.382812 13.097656 -64.800781 C 13.515625 -65.078125 14.074219 -65.21875 14.492188 -65.21875 C 14.910156 -65.21875 15.191406 -65.078125 15.328125 -64.9375 C 15.886719 -64.519531 16.027344 -63.824219 15.746094 -63.128906 C 15.328125 -62.429688 15.050781 -61.734375 14.910156 -61.035156 C 14.769531 -60.199219 14.351562 -59.644531 13.515625 -59.363281 C 12.960938 -59.226562 12.820312 -58.945312 13.097656 -58.667969 C 13.238281 -58.390625 13.515625 -58.109375 13.796875 -57.972656 L 14.351562 -57.972656 C 14.910156 -57.972656 15.328125 -58.109375 15.609375 -58.527344 C 17.140625 -60.199219 17.417969 -62.289062 17.417969 -64.382812 C 17.417969 -64.660156 17.28125 -65.21875 16.863281 -65.914062 C 16.304688 -66.890625 15.46875 -67.445312 14.351562 -67.445312 C 13.933594 -67.445312 13.65625 -67.445312 13.515625 -67.308594 C 3.902344 -64.800781 -1.949219 -49.75 -2.785156 -40.550781 C -2.925781 -36.789062 -2.648438 -35.117188 -1.671875 -33.445312 C -0.417969 -30.796875 1.671875 -29.402344 4.460938 -29.402344 Z M 4.460938 -29.402344 "/></g></g></g><g fill="#ffde59" fill-opacity="1"><g transform="translate(130.196456, 107.017957)"><g><path d="M 16.722656 -32.746094 C 17.699219 -32.746094 18.394531 -33.027344 19.089844 -33.722656 C 19.648438 -34.003906 20.066406 -34.421875 20.34375 -34.839844 C 21.460938 -36.09375 22.4375 -37.347656 23.410156 -38.601562 L 33.445312 -53.234375 C 33.585938 -53.371094 33.863281 -53.652344 34.003906 -53.929688 C 34.140625 -54.207031 34.28125 -54.488281 34.421875 -54.765625 C 34.839844 -55.324219 34.421875 -56.019531 33.863281 -56.4375 C 33.722656 -56.578125 33.585938 -56.578125 33.445312 -56.578125 C 33.167969 -56.578125 32.886719 -56.4375 32.746094 -56.160156 C 32.46875 -55.878906 32.191406 -55.460938 31.773438 -54.90625 C 30.65625 -53.371094 29.542969 -51.839844 28.566406 -50.304688 C 27.453125 -48.773438 26.335938 -47.242188 25.363281 -45.707031 C 24.527344 -44.453125 23.691406 -43.199219 22.855469 -42.085938 C 21.878906 -40.832031 21.042969 -39.578125 20.066406 -38.320312 C 19.371094 -37.066406 18.253906 -35.953125 16.863281 -34.976562 C 16.722656 -34.839844 16.445312 -34.839844 16.164062 -34.839844 C 15.746094 -34.839844 15.328125 -35.117188 15.191406 -35.675781 C 14.769531 -37.902344 15.050781 -39.996094 15.46875 -42.222656 C 16.582031 -48.355469 18.253906 -54.207031 20.34375 -60.199219 C 20.902344 -61.734375 21.320312 -63.40625 21.601562 -64.9375 C 21.878906 -65.914062 21.738281 -66.75 21.183594 -67.726562 C 20.902344 -68.144531 20.484375 -68.28125 20.066406 -68.28125 C 19.648438 -68.28125 19.371094 -68.144531 19.230469 -68.003906 C 18.253906 -67.027344 17.558594 -66.332031 16.863281 -65.355469 C 14.074219 -61.316406 11.707031 -57.273438 9.335938 -52.953125 L 5.015625 -45.429688 C 4.738281 -45.011719 4.460938 -44.59375 4.179688 -44.3125 C 3.902344 -43.894531 3.625 -43.617188 3.484375 -43.199219 C 3.207031 -42.921875 2.925781 -42.921875 2.648438 -43.058594 C 2.507812 -43.199219 2.230469 -43.339844 2.089844 -43.757812 C 2.089844 -49.332031 3.066406 -55.042969 6.269531 -59.644531 C 6.550781 -60.339844 6.550781 -60.757812 6.269531 -61.035156 C 5.992188 -61.316406 5.714844 -61.453125 5.433594 -61.453125 C 5.015625 -61.453125 4.738281 -61.316406 4.460938 -61.035156 C 3.625 -60.339844 2.925781 -59.363281 2.507812 -58.109375 C 0.558594 -53.789062 -0.417969 -49.191406 -0.277344 -44.453125 C -0.277344 -43.339844 -0.140625 -42.363281 0.277344 -41.667969 C 0.976562 -40.550781 1.949219 -39.996094 2.925781 -39.996094 C 3.761719 -39.996094 4.460938 -40.273438 5.15625 -40.96875 C 5.851562 -41.667969 6.410156 -42.640625 7.105469 -43.617188 L 11.148438 -50.722656 C 12.960938 -54.070312 14.769531 -57.414062 16.863281 -60.757812 C 17 -60.898438 17 -61.175781 17.140625 -61.453125 C 17.28125 -61.59375 17.558594 -61.734375 17.976562 -61.734375 C 18.394531 -60.757812 17.976562 -60.0625 17.558594 -59.363281 C 16.027344 -54.90625 14.769531 -50.445312 13.65625 -45.847656 C 13.097656 -43.199219 12.542969 -40.691406 12.679688 -38.042969 C 12.679688 -36.789062 12.960938 -35.8125 13.378906 -34.976562 C 14.074219 -33.445312 15.191406 -32.746094 16.722656 -32.746094 Z M 16.722656 -32.746094 "/></g></g></g><g fill="#ffde59" fill-opacity="1"><g transform="translate(161.550078, 107.017957)"><g><path d="M 7.105469 -15.609375 C 7.664062 -15.609375 8.082031 -15.746094 8.640625 -15.886719 C 11.007812 -16.722656 12.960938 -18.253906 14.214844 -20.625 C 14.632812 -21.320312 14.492188 -21.878906 13.65625 -22.296875 C 13.515625 -22.4375 13.378906 -22.574219 13.238281 -22.574219 C 12.960938 -22.574219 12.679688 -22.296875 12.402344 -21.878906 C 11.425781 -20.625 10.453125 -19.371094 8.917969 -18.394531 C 7.664062 -17.699219 6.6875 -17.417969 6.269531 -17.417969 C 5.296875 -17.417969 4.597656 -18.394531 4.179688 -20.484375 C 3.761719 -23.691406 3.761719 -26.894531 4.320312 -29.820312 C 6.410156 -41.109375 12.820312 -50.722656 19.925781 -59.644531 L 21.601562 -61.734375 C 22.15625 -62.429688 22.15625 -63.265625 21.601562 -64.101562 C 21.460938 -64.519531 21.042969 -64.800781 20.484375 -64.800781 C 20.34375 -64.800781 19.925781 -64.660156 19.371094 -64.519531 C 19.230469 -64.519531 19.089844 -64.519531 19.089844 -64.519531 C 18.953125 -64.382812 18.8125 -64.382812 18.671875 -64.382812 C 14.214844 -62.289062 10.035156 -60.339844 5.714844 -57.691406 C 5.433594 -58.390625 5.433594 -58.808594 5.851562 -59.226562 C 6.132812 -59.78125 6.410156 -60.339844 6.828125 -60.898438 C 7.105469 -61.316406 7.386719 -61.871094 7.664062 -62.289062 C 8.917969 -64.382812 10.035156 -66.472656 11.007812 -68.699219 C 11.289062 -69.957031 11.148438 -70.929688 10.730469 -71.90625 C 10.3125 -72.601562 9.617188 -73.019531 8.917969 -73.019531 C 8.5 -73.019531 8.222656 -73.019531 7.941406 -72.882812 C 2.507812 -70.375 -2.089844 -62.988281 -4.738281 -57.832031 C -4.878906 -57.554688 -5.15625 -56.996094 -5.296875 -56.296875 C -5.714844 -54.765625 -5.574219 -53.652344 -4.738281 -52.675781 C -4.042969 -51.980469 -3.207031 -51.5625 -2.230469 -51.5625 C -0.695312 -51.5625 1.949219 -52.816406 3.066406 -53.511719 C 7.105469 -55.742188 11.148438 -57.832031 15.191406 -59.921875 C 15.328125 -60.0625 15.609375 -60.199219 15.886719 -60.339844 C 16.027344 -60.480469 16.304688 -60.480469 16.445312 -60.480469 C 16.445312 -60.480469 16.582031 -60.339844 17 -60.199219 C 16.863281 -59.78125 16.722656 -59.363281 16.445312 -58.945312 C 16.027344 -58.527344 15.746094 -58.25 15.46875 -57.832031 C 8.917969 -48.632812 3.625 -40.414062 1.8125 -29.125 C 1.394531 -25.78125 1.394531 -22.4375 2.367188 -19.089844 C 3.34375 -16.722656 4.878906 -15.609375 7.105469 -15.609375 Z M -2.785156 -53.789062 C -3.207031 -53.929688 -3.34375 -54.070312 -3.34375 -54.488281 C -2.230469 -59.085938 3.761719 -67.308594 7.941406 -69.957031 C 7.941406 -69.957031 8.082031 -69.957031 8.5 -69.957031 C 8.640625 -69.816406 8.777344 -69.539062 8.777344 -69.398438 C 7.804688 -66.75 6.550781 -64.519531 5.015625 -62.152344 C 4.597656 -61.175781 4.042969 -60.339844 3.484375 -59.503906 C 2.785156 -58.667969 2.230469 -57.832031 1.8125 -56.855469 C 0.835938 -55.042969 -0.695312 -54.347656 -2.507812 -53.789062 Z M 5.574219 -57.691406 L 5.574219 -57.832031 L 5.714844 -57.691406 Z M 5.574219 -57.691406 "/></g></g></g><g fill="#ffde59" fill-opacity="1"><g transform="translate(183.845984, 107.017957)"><g><path d="M 12.542969 -25.640625 C 13.097656 -25.640625 13.515625 -25.78125 13.933594 -26.058594 C 18.253906 -29.265625 20.902344 -33.027344 21.601562 -38.183594 C 21.738281 -39.996094 22.4375 -41.386719 23.828125 -42.640625 C 27.59375 -46.40625 31.632812 -49.886719 35.953125 -53.09375 C 36.648438 -53.652344 37.207031 -54.070312 37.484375 -54.347656 C 38.042969 -54.90625 38.042969 -55.460938 37.625 -56.160156 C 37.484375 -56.4375 37.347656 -56.578125 36.929688 -56.578125 C 36.789062 -56.578125 36.648438 -56.4375 36.230469 -56.296875 C 32.886719 -54.207031 26.894531 -48.773438 23.132812 -45.429688 C 22.714844 -45.011719 22.4375 -44.730469 22.296875 -44.453125 C 22.019531 -44.175781 21.601562 -43.894531 21.183594 -43.757812 L 20.761719 -44.035156 C 20.484375 -44.3125 20.34375 -44.59375 20.207031 -44.730469 C 17.976562 -48.773438 14.492188 -50.445312 10.035156 -50.863281 L 4.878906 -51.421875 C 3.207031 -51.5625 2.367188 -51.839844 3.34375 -53.929688 C 5.433594 -59.226562 13.515625 -67.863281 18.671875 -70.511719 C 19.371094 -70.792969 19.507812 -71.210938 19.230469 -71.765625 C 19.089844 -72.183594 18.671875 -72.464844 18.253906 -72.464844 L 17.835938 -72.464844 C 12.820312 -71.070312 5.433594 -62.289062 2.648438 -58.109375 C 2.367188 -57.554688 2.089844 -56.996094 1.8125 -56.578125 C 1.53125 -56.019531 1.253906 -55.460938 1.113281 -54.90625 C 0.417969 -53.09375 0.835938 -51.5625 2.367188 -50.304688 C 3.34375 -49.609375 4.460938 -49.191406 5.433594 -49.050781 L 8.082031 -49.050781 C 9.199219 -48.914062 10.3125 -48.773438 11.425781 -48.632812 C 12.542969 -48.496094 13.65625 -48.214844 14.769531 -47.796875 C 16.164062 -47.378906 17.28125 -46.542969 18.253906 -45.429688 C 18.953125 -44.3125 19.371094 -43.476562 19.371094 -42.78125 C 19.371094 -42.085938 18.953125 -41.109375 17.976562 -39.996094 L 17 -38.738281 C 14.910156 -36.371094 12.960938 -33.585938 11.425781 -30.65625 C 10.730469 -29.683594 10.453125 -28.847656 10.3125 -28.011719 C 10.171875 -27.175781 10.589844 -26.476562 11.289062 -26.058594 C 11.707031 -25.78125 12.125 -25.640625 12.542969 -25.640625 Z M 14.492188 -29.960938 C 14.074219 -30.238281 14.074219 -30.519531 14.214844 -30.9375 L 17.28125 -35.117188 C 17.417969 -35.535156 17.699219 -35.675781 18.117188 -35.675781 C 18.253906 -35.675781 18.394531 -35.675781 18.535156 -35.535156 C 17.835938 -34.558594 17.28125 -33.585938 16.722656 -32.609375 C 16.164062 -31.632812 15.46875 -30.65625 14.492188 -29.960938 Z M 14.492188 -29.960938 "/></g></g></g><g fill="#ffde59" fill-opacity="1"><g transform="translate(218.543994, 107.017957)"><g><path d="M 0.140625 -34.839844 C 0.835938 -34.839844 1.394531 -34.976562 2.089844 -35.257812 C 2.507812 -35.394531 2.785156 -35.675781 3.066406 -35.8125 C 3.34375 -35.953125 3.625 -36.230469 4.042969 -36.371094 C 5.15625 -37.066406 22.15625 -52.816406 22.15625 -55.042969 C 22.019531 -55.601562 21.738281 -56.4375 21.042969 -56.4375 C 20.902344 -56.4375 20.625 -56.296875 20.484375 -56.160156 C 20.066406 -55.742188 19.789062 -55.324219 19.371094 -55.042969 C 18.953125 -54.625 18.671875 -54.207031 18.253906 -53.789062 L 9.058594 -44.035156 C 7.246094 -41.945312 5.015625 -40.132812 2.507812 -38.601562 C 1.53125 -37.765625 0.695312 -37.207031 -0.277344 -37.066406 L -0.835938 -36.929688 C -1.671875 -36.929688 -2.089844 -37.347656 -2.089844 -38.320312 C -2.230469 -39.714844 -2.089844 -41.25 -1.8125 -42.78125 C -0.558594 -47.242188 1.113281 -51.421875 3.902344 -55.183594 C 4.179688 -55.601562 4.460938 -56.160156 4.878906 -56.855469 C 5.296875 -57.273438 4.460938 -58.390625 4.042969 -58.390625 C 3.625 -58.527344 3.207031 -58.25 2.925781 -57.832031 C -0.558594 -52.953125 -3.34375 -47.9375 -4.320312 -41.945312 C -4.460938 -40.96875 -4.460938 -39.855469 -4.320312 -38.738281 C -3.902344 -36.371094 -2.089844 -34.839844 0.140625 -34.839844 Z M 5.992188 -62.152344 C 6.269531 -62.011719 6.550781 -62.152344 6.828125 -62.429688 C 8.640625 -64.660156 10.035156 -67.167969 11.566406 -69.816406 C 11.707031 -69.957031 11.707031 -70.234375 11.707031 -70.792969 C 11.566406 -70.929688 11.566406 -71.070312 11.566406 -71.210938 C 11.566406 -71.347656 11.425781 -71.347656 11.289062 -71.488281 C 11.148438 -71.628906 11.007812 -71.628906 10.871094 -71.628906 C 10.589844 -71.628906 10.3125 -71.488281 10.171875 -71.070312 C 9.753906 -70.375 9.335938 -69.816406 9.058594 -69.121094 C 8.640625 -68.421875 8.222656 -67.863281 7.804688 -67.167969 C 7.246094 -66.191406 6.550781 -65.21875 5.851562 -64.101562 L 5.433594 -63.265625 C 5.296875 -62.847656 5.574219 -62.570312 5.992188 -62.152344 Z M 5.992188 -62.152344 "/></g></g></g><g fill="#ffde59" fill-opacity="1"><g transform="translate(237.4955, 107.017957)"><g><path d="M 0.277344 -35.394531 C 0.835938 -35.394531 1.394531 -35.675781 1.8125 -36.09375 C 4.878906 -38.460938 8.5 -47.660156 9.617188 -51.421875 C 9.894531 -52.535156 10.453125 -53.09375 11.148438 -53.09375 C 11.425781 -53.09375 11.707031 -53.09375 11.984375 -52.953125 C 15.886719 -52.953125 19.371094 -53.234375 23.132812 -54.765625 C 23.828125 -54.90625 23.96875 -55.324219 23.691406 -56.019531 C 23.550781 -56.4375 23.132812 -56.714844 22.4375 -56.714844 C 21.738281 -56.578125 21.183594 -56.296875 20.761719 -56.160156 C 18.394531 -55.183594 15.746094 -54.90625 13.097656 -54.765625 L 12.261719 -54.765625 C 11.007812 -54.765625 10.871094 -55.042969 10.730469 -56.714844 C 10.589844 -57.832031 10.3125 -58.808594 9.753906 -59.503906 C 9.335938 -60.199219 8.917969 -60.480469 8.5 -60.339844 C 7.664062 -60.199219 6.828125 -60.0625 5.992188 -59.921875 C 5.15625 -59.78125 4.460938 -59.363281 3.761719 -58.667969 C -0.140625 -53.789062 -2.648438 -48.214844 -3.34375 -42.085938 C -3.484375 -40.691406 -3.34375 -39.4375 -2.925781 -38.183594 C -2.648438 -37.207031 -2.089844 -36.511719 -1.113281 -35.953125 C -0.558594 -35.535156 -0.140625 -35.394531 0.277344 -35.394531 Z M -0.695312 -37.902344 C -1.671875 -39.019531 -1.253906 -40.414062 -1.113281 -41.667969 C -0.558594 -46.960938 1.394531 -51.839844 4.878906 -56.296875 C 5.015625 -56.4375 5.15625 -56.714844 5.574219 -56.855469 C 5.714844 -56.855469 5.992188 -56.714844 6.132812 -56.578125 C 8.222656 -54.488281 8.359375 -54.207031 7.386719 -51.421875 C 6.550781 -48.773438 2.089844 -37.902344 -0.695312 -37.902344 Z M 8.5 -56.296875 C 7.804688 -56.296875 7.664062 -56.578125 7.804688 -57.273438 C 7.941406 -57.691406 8.222656 -57.972656 8.5 -57.832031 C 8.640625 -57.832031 8.777344 -57.554688 8.777344 -57.136719 C 8.777344 -56.714844 8.640625 -56.4375 8.5 -56.296875 Z M 8.5 -56.296875 "/></g></g></g><g fill="#ffde59" fill-opacity="1"><g transform="translate(258.1192, 107.017957)"><g><path d="M 1.8125 -29.683594 C 2.507812 -29.683594 3.066406 -30.101562 3.207031 -30.9375 C 3.34375 -31.355469 3.625 -32.050781 3.761719 -33.027344 C 4.597656 -36.648438 8.777344 -54.488281 11.425781 -56.296875 C 11.566406 -55.742188 11.707031 -55.183594 11.566406 -54.625 C 11.425781 -54.070312 11.425781 -53.511719 11.425781 -53.09375 C 11.007812 -50.027344 11.148438 -46.824219 11.707031 -43.617188 C 12.125 -41.527344 13.097656 -39.296875 15.46875 -39.296875 C 16.164062 -39.296875 16.722656 -39.4375 17.28125 -39.714844 C 22.296875 -42.921875 27.453125 -49.886719 30.796875 -54.765625 C 30.9375 -54.90625 31.074219 -55.183594 31.074219 -55.324219 C 31.214844 -55.742188 31.074219 -56.296875 30.65625 -56.714844 C 30.519531 -56.855469 30.378906 -56.855469 30.238281 -56.855469 C 29.960938 -56.855469 29.683594 -56.714844 29.402344 -56.4375 C 28.289062 -54.90625 27.175781 -53.511719 26.058594 -51.980469 C 24.246094 -49.46875 18.394531 -42.640625 15.609375 -41.25 C 15.46875 -41.109375 15.328125 -41.109375 15.050781 -41.109375 C 14.632812 -41.109375 14.351562 -41.386719 14.214844 -41.945312 C 13.796875 -43.339844 13.515625 -44.59375 13.515625 -45.707031 C 13.097656 -50.722656 13.796875 -55.460938 14.492188 -60.339844 L 14.910156 -64.242188 C 14.910156 -65.078125 14.632812 -65.636719 14.214844 -66.054688 C 14.074219 -66.191406 13.933594 -66.332031 13.515625 -66.332031 C 13.097656 -66.332031 12.960938 -66.191406 12.820312 -66.054688 C 9.199219 -60.617188 4.878906 -47.378906 3.207031 -41.109375 L 2.367188 -38.320312 L 2.089844 -38.320312 C 1.8125 -38.601562 1.671875 -38.738281 1.671875 -38.738281 L 1.671875 -41.109375 C 2.367188 -49.46875 4.042969 -57.273438 7.386719 -65.078125 L 7.804688 -66.054688 C 7.804688 -66.609375 7.523438 -67.027344 6.96875 -67.308594 C 6.828125 -67.308594 6.828125 -67.308594 6.6875 -67.445312 C 6.550781 -67.445312 6.269531 -67.308594 5.851562 -66.890625 L 4.597656 -64.242188 C 2.925781 -60.199219 1.8125 -56.019531 0.835938 -51.699219 C -0.417969 -45.847656 -0.976562 -39.996094 -0.695312 -34.140625 C -0.695312 -33.027344 -0.695312 -32.050781 -0.140625 -30.9375 C 0.140625 -30.101562 0.835938 -29.683594 1.8125 -29.683594 Z M 1.8125 -29.683594 "/></g></g></g><g fill="#ffffff" fill-opacity="1"><g transform="translate(14.617329, 106.402091)"><g><path d="M 10.171875 -0.835938 C 18.394531 -0.835938 26.894531 -9.476562 32.46875 -15.46875 C 35.257812 -18.671875 38.042969 -21.878906 40.691406 -25.222656 C 43.339844 -28.429688 45.988281 -31.773438 48.632812 -35.117188 C 50.445312 -37.625 52.398438 -40.132812 54.207031 -42.78125 C 56.019531 -45.289062 57.972656 -47.796875 60.0625 -50.167969 C 61.316406 -51.699219 62.570312 -52.953125 63.683594 -54.488281 C 64.242188 -55.042969 64.101562 -56.019531 63.40625 -56.4375 C 63.265625 -56.578125 63.128906 -56.578125 62.988281 -56.578125 C 62.707031 -56.578125 62.429688 -56.4375 62.011719 -56.019531 L 60.480469 -54.347656 C 56.714844 -50.027344 53.371094 -45.570312 49.886719 -40.96875 C 44.453125 -33.722656 38.738281 -26.617188 32.746094 -19.648438 C 27.59375 -13.097656 17 -2.785156 8.359375 -2.785156 C 6.550781 -2.785156 5.15625 -3.625 4.179688 -5.433594 C 4.042969 -5.851562 3.902344 -6.132812 3.761719 -6.550781 C 3.625 -6.96875 3.34375 -7.386719 3.207031 -7.804688 C 2.230469 -11.148438 1.8125 -14.632812 2.230469 -18.117188 C 4.042969 -39.160156 16.164062 -61.316406 31.632812 -75.390625 C 33.722656 -77.203125 35.8125 -78.316406 38.042969 -79.011719 C 40.132812 -79.570312 41.804688 -80.265625 43.617188 -80.964844 C 43.894531 -81.105469 44.175781 -81.382812 44.59375 -81.523438 C 44.871094 -81.660156 45.152344 -81.800781 45.289062 -81.941406 C 45.847656 -82.21875 45.988281 -82.777344 45.847656 -83.613281 C 45.707031 -84.449219 45.289062 -84.867188 44.59375 -84.867188 C 43.339844 -84.867188 42.222656 -84.726562 41.109375 -84.308594 C 39.296875 -83.613281 37.484375 -82.636719 35.535156 -81.382812 C 34.140625 -80.40625 32.746094 -79.847656 31.492188 -79.570312 C 26.617188 -78.039062 22.15625 -76.644531 17 -76.644531 C 15.746094 -76.644531 14.769531 -76.921875 13.933594 -77.339844 C 13.515625 -79.011719 14.632812 -80.128906 15.609375 -81.382812 C 21.183594 -89.605469 34.839844 -98.941406 44.871094 -100.335938 L 45.429688 -100.335938 C 46.125 -100.335938 46.683594 -100.195312 46.960938 -99.777344 C 47.242188 -99.359375 47.242188 -99.082031 46.960938 -98.800781 C 46.542969 -98.523438 46.265625 -98.242188 46.125 -97.964844 C 45.988281 -97.6875 45.707031 -97.40625 45.289062 -96.988281 C 45.289062 -96.988281 45.289062 -96.851562 45.152344 -96.710938 L 45.152344 -96.433594 C 45.289062 -96.292969 45.570312 -96.292969 45.707031 -96.152344 C 45.847656 -96.015625 45.847656 -96.015625 45.988281 -96.015625 C 47.660156 -96.433594 48.773438 -97.824219 48.632812 -99.359375 C 48.496094 -101.03125 47.519531 -102.007812 45.988281 -102.285156 C 45.289062 -102.425781 44.730469 -102.5625 44.3125 -102.5625 C 43.617188 -102.5625 42.640625 -102.425781 41.667969 -102.144531 C 40.550781 -101.726562 39.714844 -101.449219 39.019531 -101.308594 C 28.984375 -98.105469 21.183594 -91.832031 14.492188 -83.890625 C 13.796875 -82.914062 13.097656 -81.941406 12.402344 -80.683594 C 10.871094 -77.898438 12.402344 -75.113281 15.609375 -74.554688 C 16.027344 -74.414062 16.582031 -74.414062 17.28125 -74.414062 L 19.507812 -74.414062 C 20.625 -74.414062 21.738281 -74.554688 22.855469 -74.832031 C 23.828125 -74.972656 24.945312 -75.25 25.917969 -75.390625 C 26.335938 -75.53125 26.617188 -75.667969 26.894531 -75.667969 C 27.035156 -75.667969 27.175781 -75.53125 27.3125 -75.25 C 27.730469 -74.832031 27.175781 -74.554688 26.753906 -74.136719 C 12.820312 -60.199219 0.417969 -36.648438 0 -16.445312 C 0 -9.335938 2.367188 -0.835938 10.171875 -0.835938 Z M 10.171875 -0.835938 "/></g></g></g><g fill="#ffffff" fill-opacity="1"><g transform="translate(75.373672, 106.402091)"><g><path d="M -10.171875 -27.730469 C -9.199219 -27.871094 -8.640625 -28.011719 -7.664062 -28.429688 C -4.320312 -29.960938 -1.671875 -31.910156 0.695312 -34.558594 L 3.207031 -37.484375 C 3.625 -37.347656 4.042969 -37.066406 4.320312 -36.789062 C 4.460938 -36.371094 4.738281 -36.09375 5.015625 -35.953125 C 6.550781 -34.421875 7.664062 -34.421875 9.753906 -34.421875 C 12.542969 -34.421875 17.140625 -39.160156 18.8125 -41.25 C 20.625 -43.339844 22.296875 -45.429688 23.96875 -47.519531 C 25.640625 -49.609375 27.3125 -51.699219 29.125 -53.789062 L 29.820312 -54.90625 C 29.960938 -55.460938 29.820312 -56.019531 29.402344 -56.4375 C 29.265625 -56.578125 28.984375 -56.714844 28.707031 -56.714844 C 28.429688 -56.714844 28.011719 -56.4375 27.453125 -55.742188 C 26.894531 -55.042969 26.476562 -54.625 26.335938 -54.488281 C 24.945312 -52.816406 23.550781 -51.144531 22.296875 -49.46875 C 20.902344 -47.660156 19.507812 -45.988281 18.117188 -44.3125 C 15.328125 -41.527344 12.402344 -37.484375 8.777344 -36.230469 C 8.640625 -36.230469 8.5 -36.230469 8.359375 -36.230469 C 8.222656 -36.09375 8.222656 -36.09375 8.082031 -36.09375 C 7.386719 -36.09375 6.828125 -36.511719 6.269531 -37.207031 C 5.296875 -38.738281 4.597656 -40.273438 6.132812 -41.945312 C 6.550781 -42.503906 6.96875 -43.058594 7.246094 -43.757812 C 7.523438 -44.453125 7.941406 -45.011719 8.359375 -45.570312 C 10.589844 -49.050781 12.820312 -52.535156 14.910156 -56.019531 C 17 -59.503906 19.789062 -62.429688 22.992188 -65.078125 C 23.410156 -65.355469 23.410156 -65.914062 22.855469 -66.609375 C 22.714844 -66.75 22.4375 -66.890625 22.296875 -66.890625 C 22.15625 -66.890625 22.019531 -66.890625 22.019531 -66.890625 C 21.878906 -66.75 21.878906 -66.75 21.738281 -66.75 C 18.8125 -64.9375 15.746094 -60.617188 13.65625 -57.832031 C 12.402344 -56.019531 11.148438 -54.347656 10.035156 -52.675781 C 8.777344 -50.863281 7.664062 -49.191406 6.410156 -47.378906 C 6.132812 -46.960938 5.851562 -46.542969 5.714844 -46.125 C 5.433594 -45.707031 5.015625 -45.289062 4.597656 -45.152344 C 4.179688 -45.429688 4.042969 -45.707031 4.042969 -46.125 C 4.042969 -46.40625 4.042969 -46.683594 3.902344 -46.960938 C 3.484375 -50.722656 3.761719 -54.070312 4.179688 -57.832031 C 4.179688 -58.109375 4.179688 -58.390625 4.179688 -58.808594 C 4.179688 -59.085938 4.042969 -59.363281 3.902344 -59.644531 C 3.761719 -59.78125 3.484375 -60.0625 3.066406 -60.199219 C 2.785156 -60.339844 2.507812 -60.0625 2.367188 -59.644531 C 2.230469 -59.226562 2.230469 -58.808594 2.089844 -58.390625 C 1.949219 -57.972656 1.949219 -57.554688 1.949219 -57.136719 C 1.53125 -52.117188 1.394531 -47.242188 2.089844 -42.363281 C 2.230469 -41.386719 2.089844 -40.691406 1.671875 -40.273438 C -0.558594 -37.066406 -3.207031 -34.140625 -6.550781 -32.050781 C -8.082031 -31.074219 -9.335938 -30.238281 -11.007812 -30.238281 L -11.707031 -30.238281 C -12.402344 -30.378906 -12.820312 -29.402344 -12.402344 -28.847656 C -11.984375 -28.148438 -11.148438 -27.730469 -10.171875 -27.730469 Z M -10.171875 -27.730469 "/></g></g></g><g fill="#ffffff" fill-opacity="1"><g transform="translate(102.128759, 106.402091)"><g><path d="M 4.460938 -29.402344 C 9.058594 -29.402344 16.445312 -35.675781 19.371094 -39.296875 C 21.320312 -41.527344 23.132812 -43.894531 24.804688 -46.40625 C 26.476562 -48.773438 28.148438 -51.28125 29.960938 -53.652344 C 30.378906 -54.070312 30.65625 -54.625 30.65625 -55.183594 C 30.519531 -55.742188 30.238281 -56.160156 30.101562 -56.296875 C 29.960938 -56.4375 29.820312 -56.4375 29.683594 -56.4375 C 29.542969 -56.4375 29.265625 -56.296875 28.984375 -56.019531 L 26.476562 -52.953125 C 23.828125 -49.46875 21.320312 -45.847656 18.671875 -42.363281 C 16.027344 -38.460938 8.082031 -31.355469 3.066406 -31.355469 C 0.140625 -31.355469 -0.695312 -35.117188 -0.695312 -37.484375 C -0.835938 -39.578125 -0.558594 -41.25 -0.140625 -43.339844 C 1.394531 -50.304688 5.296875 -60.0625 11.566406 -63.824219 C 11.984375 -64.101562 12.542969 -64.382812 13.097656 -64.800781 C 13.515625 -65.078125 14.074219 -65.21875 14.492188 -65.21875 C 14.910156 -65.21875 15.191406 -65.078125 15.328125 -64.9375 C 15.886719 -64.519531 16.027344 -63.824219 15.746094 -63.128906 C 15.328125 -62.429688 15.050781 -61.734375 14.910156 -61.035156 C 14.769531 -60.199219 14.351562 -59.644531 13.515625 -59.363281 C 12.960938 -59.226562 12.820312 -58.945312 13.097656 -58.667969 C 13.238281 -58.390625 13.515625 -58.109375 13.796875 -57.972656 L 14.351562 -57.972656 C 14.910156 -57.972656 15.328125 -58.109375 15.609375 -58.527344 C 17.140625 -60.199219 17.417969 -62.289062 17.417969 -64.382812 C 17.417969 -64.660156 17.28125 -65.21875 16.863281 -65.914062 C 16.304688 -66.890625 15.46875 -67.445312 14.351562 -67.445312 C 13.933594 -67.445312 13.65625 -67.445312 13.515625 -67.308594 C 3.902344 -64.800781 -1.949219 -49.75 -2.785156 -40.550781 C -2.925781 -36.789062 -2.648438 -35.117188 -1.671875 -33.445312 C -0.417969 -30.796875 1.671875 -29.402344 4.460938 -29.402344 Z M 4.460938 -29.402344 "/></g></g></g><g fill="#ffffff" fill-opacity="1"><g transform="translate(129.58059, 106.402091)"><g><path d="M 16.722656 -32.746094 C 17.699219 -32.746094 18.394531 -33.027344 19.089844 -33.722656 C 19.648438 -34.003906 20.066406 -34.421875 20.34375 -34.839844 C 21.460938 -36.09375 22.4375 -37.347656 23.410156 -38.601562 L 33.445312 -53.234375 C 33.585938 -53.371094 33.863281 -53.652344 34.003906 -53.929688 C 34.140625 -54.207031 34.28125 -54.488281 34.421875 -54.765625 C 34.839844 -55.324219 34.421875 -56.019531 33.863281 -56.4375 C 33.722656 -56.578125 33.585938 -56.578125 33.445312 -56.578125 C 33.167969 -56.578125 32.886719 -56.4375 32.746094 -56.160156 C 32.46875 -55.878906 32.191406 -55.460938 31.773438 -54.90625 C 30.65625 -53.371094 29.542969 -51.839844 28.566406 -50.304688 C 27.453125 -48.773438 26.335938 -47.242188 25.363281 -45.707031 C 24.527344 -44.453125 23.691406 -43.199219 22.855469 -42.085938 C 21.878906 -40.832031 21.042969 -39.578125 20.066406 -38.320312 C 19.371094 -37.066406 18.253906 -35.953125 16.863281 -34.976562 C 16.722656 -34.839844 16.445312 -34.839844 16.164062 -34.839844 C 15.746094 -34.839844 15.328125 -35.117188 15.191406 -35.675781 C 14.769531 -37.902344 15.050781 -39.996094 15.46875 -42.222656 C 16.582031 -48.355469 18.253906 -54.207031 20.34375 -60.199219 C 20.902344 -61.734375 21.320312 -63.40625 21.601562 -64.9375 C 21.878906 -65.914062 21.738281 -66.75 21.183594 -67.726562 C 20.902344 -68.144531 20.484375 -68.28125 20.066406 -68.28125 C 19.648438 -68.28125 19.371094 -68.144531 19.230469 -68.003906 C 18.253906 -67.027344 17.558594 -66.332031 16.863281 -65.355469 C 14.074219 -61.316406 11.707031 -57.273438 9.335938 -52.953125 L 5.015625 -45.429688 C 4.738281 -45.011719 4.460938 -44.59375 4.179688 -44.3125 C 3.902344 -43.894531 3.625 -43.617188 3.484375 -43.199219 C 3.207031 -42.921875 2.925781 -42.921875 2.648438 -43.058594 C 2.507812 -43.199219 2.230469 -43.339844 2.089844 -43.757812 C 2.089844 -49.332031 3.066406 -55.042969 6.269531 -59.644531 C 6.550781 -60.339844 6.550781 -60.757812 6.269531 -61.035156 C 5.992188 -61.316406 5.714844 -61.453125 5.433594 -61.453125 C 5.015625 -61.453125 4.738281 -61.316406 4.460938 -61.035156 C 3.625 -60.339844 2.925781 -59.363281 2.507812 -58.109375 C 0.558594 -53.789062 -0.417969 -49.191406 -0.277344 -44.453125 C -0.277344 -43.339844 -0.140625 -42.363281 0.277344 -41.667969 C 0.976562 -40.550781 1.949219 -39.996094 2.925781 -39.996094 C 3.761719 -39.996094 4.460938 -40.273438 5.15625 -40.96875 C 5.851562 -41.667969 6.410156 -42.640625 7.105469 -43.617188 L 11.148438 -50.722656 C 12.960938 -54.070312 14.769531 -57.414062 16.863281 -60.757812 C 17 -60.898438 17 -61.175781 17.140625 -61.453125 C 17.28125 -61.59375 17.558594 -61.734375 17.976562 -61.734375 C 18.394531 -60.757812 17.976562 -60.0625 17.558594 -59.363281 C 16.027344 -54.90625 14.769531 -50.445312 13.65625 -45.847656 C 13.097656 -43.199219 12.542969 -40.691406 12.679688 -38.042969 C 12.679688 -36.789062 12.960938 -35.8125 13.378906 -34.976562 C 14.074219 -33.445312 15.191406 -32.746094 16.722656 -32.746094 Z M 16.722656 -32.746094 "/></g></g></g><g fill="#ffffff" fill-opacity="1"><g transform="translate(160.934211, 106.402091)"><g><path d="M 7.105469 -15.609375 C 7.664062 -15.609375 8.082031 -15.746094 8.640625 -15.886719 C 11.007812 -16.722656 12.960938 -18.253906 14.214844 -20.625 C 14.632812 -21.320312 14.492188 -21.878906 13.65625 -22.296875 C 13.515625 -22.4375 13.378906 -22.574219 13.238281 -22.574219 C 12.960938 -22.574219 12.679688 -22.296875 12.402344 -21.878906 C 11.425781 -20.625 10.453125 -19.371094 8.917969 -18.394531 C 7.664062 -17.699219 6.6875 -17.417969 6.269531 -17.417969 C 5.296875 -17.417969 4.597656 -18.394531 4.179688 -20.484375 C 3.761719 -23.691406 3.761719 -26.894531 4.320312 -29.820312 C 6.410156 -41.109375 12.820312 -50.722656 19.925781 -59.644531 L 21.601562 -61.734375 C 22.15625 -62.429688 22.15625 -63.265625 21.601562 -64.101562 C 21.460938 -64.519531 21.042969 -64.800781 20.484375 -64.800781 C 20.34375 -64.800781 19.925781 -64.660156 19.371094 -64.519531 C 19.230469 -64.519531 19.089844 -64.519531 19.089844 -64.519531 C 18.953125 -64.382812 18.8125 -64.382812 18.671875 -64.382812 C 14.214844 -62.289062 10.035156 -60.339844 5.714844 -57.691406 C 5.433594 -58.390625 5.433594 -58.808594 5.851562 -59.226562 C 6.132812 -59.78125 6.410156 -60.339844 6.828125 -60.898438 C 7.105469 -61.316406 7.386719 -61.871094 7.664062 -62.289062 C 8.917969 -64.382812 10.035156 -66.472656 11.007812 -68.699219 C 11.289062 -69.957031 11.148438 -70.929688 10.730469 -71.90625 C 10.3125 -72.601562 9.617188 -73.019531 8.917969 -73.019531 C 8.5 -73.019531 8.222656 -73.019531 7.941406 -72.882812 C 2.507812 -70.375 -2.089844 -62.988281 -4.738281 -57.832031 C -4.878906 -57.554688 -5.15625 -56.996094 -5.296875 -56.296875 C -5.714844 -54.765625 -5.574219 -53.652344 -4.738281 -52.675781 C -4.042969 -51.980469 -3.207031 -51.5625 -2.230469 -51.5625 C -0.695312 -51.5625 1.949219 -52.816406 3.066406 -53.511719 C 7.105469 -55.742188 11.148438 -57.832031 15.191406 -59.921875 C 15.328125 -60.0625 15.609375 -60.199219 15.886719 -60.339844 C 16.027344 -60.480469 16.304688 -60.480469 16.445312 -60.480469 C 16.445312 -60.480469 16.582031 -60.339844 17 -60.199219 C 16.863281 -59.78125 16.722656 -59.363281 16.445312 -58.945312 C 16.027344 -58.527344 15.746094 -58.25 15.46875 -57.832031 C 8.917969 -48.632812 3.625 -40.414062 1.8125 -29.125 C 1.394531 -25.78125 1.394531 -22.4375 2.367188 -19.089844 C 3.34375 -16.722656 4.878906 -15.609375 7.105469 -15.609375 Z M -2.785156 -53.789062 C -3.207031 -53.929688 -3.34375 -54.070312 -3.34375 -54.488281 C -2.230469 -59.085938 3.761719 -67.308594 7.941406 -69.957031 C 7.941406 -69.957031 8.082031 -69.957031 8.5 -69.957031 C 8.640625 -69.816406 8.777344 -69.539062 8.777344 -69.398438 C 7.804688 -66.75 6.550781 -64.519531 5.015625 -62.152344 C 4.597656 -61.175781 4.042969 -60.339844 3.484375 -59.503906 C 2.785156 -58.667969 2.230469 -57.832031 1.8125 -56.855469 C 0.835938 -55.042969 -0.695312 -54.347656 -2.507812 -53.789062 Z M 5.574219 -57.691406 L 5.574219 -57.832031 L 5.714844 -57.691406 Z M 5.574219 -57.691406 "/></g></g></g><g fill="#ffffff" fill-opacity="1"><g transform="translate(183.230117, 106.402091)"><g><path d="M 12.542969 -25.640625 C 13.097656 -25.640625 13.515625 -25.78125 13.933594 -26.058594 C 18.253906 -29.265625 20.902344 -33.027344 21.601562 -38.183594 C 21.738281 -39.996094 22.4375 -41.386719 23.828125 -42.640625 C 27.59375 -46.40625 31.632812 -49.886719 35.953125 -53.09375 C 36.648438 -53.652344 37.207031 -54.070312 37.484375 -54.347656 C 38.042969 -54.90625 38.042969 -55.460938 37.625 -56.160156 C 37.484375 -56.4375 37.347656 -56.578125 36.929688 -56.578125 C 36.789062 -56.578125 36.648438 -56.4375 36.230469 -56.296875 C 32.886719 -54.207031 26.894531 -48.773438 23.132812 -45.429688 C 22.714844 -45.011719 22.4375 -44.730469 22.296875 -44.453125 C 22.019531 -44.175781 21.601562 -43.894531 21.183594 -43.757812 L 20.761719 -44.035156 C 20.484375 -44.3125 20.34375 -44.59375 20.207031 -44.730469 C 17.976562 -48.773438 14.492188 -50.445312 10.035156 -50.863281 L 4.878906 -51.421875 C 3.207031 -51.5625 2.367188 -51.839844 3.34375 -53.929688 C 5.433594 -59.226562 13.515625 -67.863281 18.671875 -70.511719 C 19.371094 -70.792969 19.507812 -71.210938 19.230469 -71.765625 C 19.089844 -72.183594 18.671875 -72.464844 18.253906 -72.464844 L 17.835938 -72.464844 C 12.820312 -71.070312 5.433594 -62.289062 2.648438 -58.109375 C 2.367188 -57.554688 2.089844 -56.996094 1.8125 -56.578125 C 1.53125 -56.019531 1.253906 -55.460938 1.113281 -54.90625 C 0.417969 -53.09375 0.835938 -51.5625 2.367188 -50.304688 C 3.34375 -49.609375 4.460938 -49.191406 5.433594 -49.050781 L 8.082031 -49.050781 C 9.199219 -48.914062 10.3125 -48.773438 11.425781 -48.632812 C 12.542969 -48.496094 13.65625 -48.214844 14.769531 -47.796875 C 16.164062 -47.378906 17.28125 -46.542969 18.253906 -45.429688 C 18.953125 -44.3125 19.371094 -43.476562 19.371094 -42.78125 C 19.371094 -42.085938 18.953125 -41.109375 17.976562 -39.996094 L 17 -38.738281 C 14.910156 -36.371094 12.960938 -33.585938 11.425781 -30.65625 C 10.730469 -29.683594 10.453125 -28.847656 10.3125 -28.011719 C 10.171875 -27.175781 10.589844 -26.476562 11.289062 -26.058594 C 11.707031 -25.78125 12.125 -25.640625 12.542969 -25.640625 Z M 14.492188 -29.960938 C 14.074219 -30.238281 14.074219 -30.519531 14.214844 -30.9375 L 17.28125 -35.117188 C 17.417969 -35.535156 17.699219 -35.675781 18.117188 -35.675781 C 18.253906 -35.675781 18.394531 -35.675781 18.535156 -35.535156 C 17.835938 -34.558594 17.28125 -33.585938 16.722656 -32.609375 C 16.164062 -31.632812 15.46875 -30.65625 14.492188 -29.960938 Z M 14.492188 -29.960938 "/></g></g></g><g fill="#ffffff" fill-opacity="1"><g transform="translate(217.928128, 106.402091)"><g><path d="M 0.140625 -34.839844 C 0.835938 -34.839844 1.394531 -34.976562 2.089844 -35.257812 C 2.507812 -35.394531 2.785156 -35.675781 3.066406 -35.8125 C 3.34375 -35.953125 3.625 -36.230469 4.042969 -36.371094 C 5.15625 -37.066406 22.15625 -52.816406 22.15625 -55.042969 C 22.019531 -55.601562 21.738281 -56.4375 21.042969 -56.4375 C 20.902344 -56.4375 20.625 -56.296875 20.484375 -56.160156 C 20.066406 -55.742188 19.789062 -55.324219 19.371094 -55.042969 C 18.953125 -54.625 18.671875 -54.207031 18.253906 -53.789062 L 9.058594 -44.035156 C 7.246094 -41.945312 5.015625 -40.132812 2.507812 -38.601562 C 1.53125 -37.765625 0.695312 -37.207031 -0.277344 -37.066406 L -0.835938 -36.929688 C -1.671875 -36.929688 -2.089844 -37.347656 -2.089844 -38.320312 C -2.230469 -39.714844 -2.089844 -41.25 -1.8125 -42.78125 C -0.558594 -47.242188 1.113281 -51.421875 3.902344 -55.183594 C 4.179688 -55.601562 4.460938 -56.160156 4.878906 -56.855469 C 5.296875 -57.273438 4.460938 -58.390625 4.042969 -58.390625 C 3.625 -58.527344 3.207031 -58.25 2.925781 -57.832031 C -0.558594 -52.953125 -3.34375 -47.9375 -4.320312 -41.945312 C -4.460938 -40.96875 -4.460938 -39.855469 -4.320312 -38.738281 C -3.902344 -36.371094 -2.089844 -34.839844 0.140625 -34.839844 Z M 5.992188 -62.152344 C 6.269531 -62.011719 6.550781 -62.152344 6.828125 -62.429688 C 8.640625 -64.660156 10.035156 -67.167969 11.566406 -69.816406 C 11.707031 -69.957031 11.707031 -70.234375 11.707031 -70.792969 C 11.566406 -70.929688 11.566406 -71.070312 11.566406 -71.210938 C 11.566406 -71.347656 11.425781 -71.347656 11.289062 -71.488281 C 11.148438 -71.628906 11.007812 -71.628906 10.871094 -71.628906 C 10.589844 -71.628906 10.3125 -71.488281 10.171875 -71.070312 C 9.753906 -70.375 9.335938 -69.816406 9.058594 -69.121094 C 8.640625 -68.421875 8.222656 -67.863281 7.804688 -67.167969 C 7.246094 -66.191406 6.550781 -65.21875 5.851562 -64.101562 L 5.433594 -63.265625 C 5.296875 -62.847656 5.574219 -62.570312 5.992188 -62.152344 Z M 5.992188 -62.152344 "/></g></g></g><g fill="#ffffff" fill-opacity="1"><g transform="translate(236.879633, 106.402091)"><g><path d="M 0.277344 -35.394531 C 0.835938 -35.394531 1.394531 -35.675781 1.8125 -36.09375 C 4.878906 -38.460938 8.5 -47.660156 9.617188 -51.421875 C 9.894531 -52.535156 10.453125 -53.09375 11.148438 -53.09375 C 11.425781 -53.09375 11.707031 -53.09375 11.984375 -52.953125 C 15.886719 -52.953125 19.371094 -53.234375 23.132812 -54.765625 C 23.828125 -54.90625 23.96875 -55.324219 23.691406 -56.019531 C 23.550781 -56.4375 23.132812 -56.714844 22.4375 -56.714844 C 21.738281 -56.578125 21.183594 -56.296875 20.761719 -56.160156 C 18.394531 -55.183594 15.746094 -54.90625 13.097656 -54.765625 L 12.261719 -54.765625 C 11.007812 -54.765625 10.871094 -55.042969 10.730469 -56.714844 C 10.589844 -57.832031 10.3125 -58.808594 9.753906 -59.503906 C 9.335938 -60.199219 8.917969 -60.480469 8.5 -60.339844 C 7.664062 -60.199219 6.828125 -60.0625 5.992188 -59.921875 C 5.15625 -59.78125 4.460938 -59.363281 3.761719 -58.667969 C -0.140625 -53.789062 -2.648438 -48.214844 -3.34375 -42.085938 C -3.484375 -40.691406 -3.34375 -39.4375 -2.925781 -38.183594 C -2.648438 -37.207031 -2.089844 -36.511719 -1.113281 -35.953125 C -0.558594 -35.535156 -0.140625 -35.394531 0.277344 -35.394531 Z M -0.695312 -37.902344 C -1.671875 -39.019531 -1.253906 -40.414062 -1.113281 -41.667969 C -0.558594 -46.960938 1.394531 -51.839844 4.878906 -56.296875 C 5.015625 -56.4375 5.15625 -56.714844 5.574219 -56.855469 C 5.714844 -56.855469 5.992188 -56.714844 6.132812 -56.578125 C 8.222656 -54.488281 8.359375 -54.207031 7.386719 -51.421875 C 6.550781 -48.773438 2.089844 -37.902344 -0.695312 -37.902344 Z M 8.5 -56.296875 C 7.804688 -56.296875 7.664062 -56.578125 7.804688 -57.273438 C 7.941406 -57.691406 8.222656 -57.972656 8.5 -57.832031 C 8.640625 -57.832031 8.777344 -57.554688 8.777344 -57.136719 C 8.777344 -56.714844 8.640625 -56.4375 8.5 -56.296875 Z M 8.5 -56.296875 "/></g></g></g><g fill="#ffffff" fill-opacity="1"><g transform="translate(257.503333, 106.402091)"><g><path d="M 1.8125 -29.683594 C 2.507812 -29.683594 3.066406 -30.101562 3.207031 -30.9375 C 3.34375 -31.355469 3.625 -32.050781 3.761719 -33.027344 C 4.597656 -36.648438 8.777344 -54.488281 11.425781 -56.296875 C 11.566406 -55.742188 11.707031 -55.183594 11.566406 -54.625 C 11.425781 -54.070312 11.425781 -53.511719 11.425781 -53.09375 C 11.007812 -50.027344 11.148438 -46.824219 11.707031 -43.617188 C 12.125 -41.527344 13.097656 -39.296875 15.46875 -39.296875 C 16.164062 -39.296875 16.722656 -39.4375 17.28125 -39.714844 C 22.296875 -42.921875 27.453125 -49.886719 30.796875 -54.765625 C 30.9375 -54.90625 31.074219 -55.183594 31.074219 -55.324219 C 31.214844 -55.742188 31.074219 -56.296875 30.65625 -56.714844 C 30.519531 -56.855469 30.378906 -56.855469 30.238281 -56.855469 C 29.960938 -56.855469 29.683594 -56.714844 29.402344 -56.4375 C 28.289062 -54.90625 27.175781 -53.511719 26.058594 -51.980469 C 24.246094 -49.46875 18.394531 -42.640625 15.609375 -41.25 C 15.46875 -41.109375 15.328125 -41.109375 15.050781 -41.109375 C 14.632812 -41.109375 14.351562 -41.386719 14.214844 -41.945312 C 13.796875 -43.339844 13.515625 -44.59375 13.515625 -45.707031 C 13.097656 -50.722656 13.796875 -55.460938 14.492188 -60.339844 L 14.910156 -64.242188 C 14.910156 -65.078125 14.632812 -65.636719 14.214844 -66.054688 C 14.074219 -66.191406 13.933594 -66.332031 13.515625 -66.332031 C 13.097656 -66.332031 12.960938 -66.191406 12.820312 -66.054688 C 9.199219 -60.617188 4.878906 -47.378906 3.207031 -41.109375 L 2.367188 -38.320312 L 2.089844 -38.320312 C 1.8125 -38.601562 1.671875 -38.738281 1.671875 -38.738281 L 1.671875 -41.109375 C 2.367188 -49.46875 4.042969 -57.273438 7.386719 -65.078125 L 7.804688 -66.054688 C 7.804688 -66.609375 7.523438 -67.027344 6.96875 -67.308594 C 6.828125 -67.308594 6.828125 -67.308594 6.6875 -67.445312 C 6.550781 -67.445312 6.269531 -67.308594 5.851562 -66.890625 L 4.597656 -64.242188 C 2.925781 -60.199219 1.8125 -56.019531 0.835938 -51.699219 C -0.417969 -45.847656 -0.976562 -39.996094 -0.695312 -34.140625 C -0.695312 -33.027344 -0.695312 -32.050781 -0.140625 -30.9375 C 0.140625 -30.101562 0.835938 -29.683594 1.8125 -29.683594 Z M 1.8125 -29.683594 "/></g></g></g><g fill="#afa75e" fill-opacity="1"><g transform="translate(88.630414, 106.526543)"><g><path d="M 0.203125 -13.9375 L 10.65625 -13.9375 L 10.65625 -12.265625 L 6.375 -12.265625 L 6.375 0 L 4.484375 0 L 4.484375 -12.265625 L 0.203125 -12.265625 Z M 0.203125 -13.9375 "/></g></g></g><g fill="#afa75e" fill-opacity="1"><g transform="translate(109.951368, 106.526543)"><g><path d="M 9.90625 0.234375 L 8.1875 -3.546875 C 7.75 -4.484375 7.195312 -5.148438 6.53125 -5.546875 C 5.863281 -5.953125 5.015625 -6.15625 3.984375 -6.15625 L 3.6875 -6.15625 L 3.6875 0 L 1.796875 0 L 1.796875 -13.890625 C 2.503906 -13.960938 3.171875 -14.015625 3.796875 -14.046875 C 4.429688 -14.078125 5.125 -14.09375 5.875 -14.09375 C 6.71875 -14.09375 7.457031 -14.003906 8.09375 -13.828125 C 8.738281 -13.648438 9.269531 -13.394531 9.6875 -13.0625 C 10.113281 -12.726562 10.4375 -12.332031 10.65625 -11.875 C 10.875 -11.425781 10.984375 -10.929688 10.984375 -10.390625 C 10.984375 -9.421875 10.691406 -8.640625 10.109375 -8.046875 C 9.535156 -7.460938 8.707031 -7.023438 7.625 -6.734375 C 7.882812 -6.609375 8.128906 -6.46875 8.359375 -6.3125 C 8.585938 -6.164062 8.800781 -5.984375 9 -5.765625 C 9.195312 -5.546875 9.390625 -5.28125 9.578125 -4.96875 C 9.773438 -4.664062 9.972656 -4.296875 10.171875 -3.859375 L 11.6875 -0.59375 Z M 5.875 -12.5 C 5.425781 -12.5 5.019531 -12.492188 4.65625 -12.484375 C 4.300781 -12.472656 3.976562 -12.453125 3.6875 -12.421875 L 3.6875 -7.75 L 5.875 -7.75 C 6.832031 -7.75 7.609375 -7.957031 8.203125 -8.375 C 8.796875 -8.800781 9.09375 -9.414062 9.09375 -10.21875 C 9.09375 -10.875 8.8125 -11.414062 8.25 -11.84375 C 7.695312 -12.28125 6.90625 -12.5 5.875 -12.5 Z M 5.875 -12.5 "/></g></g></g><g fill="#afa75e" fill-opacity="1"><g transform="translate(132.705379, 106.526543)"><g><path d="M 0.203125 -0.5 L 5.65625 -13.9375 L 7.71875 -13.9375 L 13.09375 -0.5 L 11.359375 0.203125 L 9.8125 -3.78125 L 3.359375 -3.78125 L 1.8125 0.15625 Z M 3.96875 -5.375 L 9.203125 -5.375 L 6.59375 -12.0625 Z M 3.96875 -5.375 "/></g></g></g><g fill="#afa75e" fill-opacity="1"><g transform="translate(156.474476, 106.526543)"><g><path d="M 0.203125 -13.4375 L 2.046875 -14.15625 L 6.4375 -2.0625 L 10.828125 -14.09375 L 12.546875 -13.4375 L 7.4375 0 L 5.3125 0 Z M 0.203125 -13.4375 "/></g></g></g><g fill="#afa75e" fill-opacity="1"><g transform="translate(179.686279, 106.526543)"><g><path d="M 1.796875 -13.9375 L 10.15625 -13.9375 L 10.15625 -12.296875 L 3.6875 -12.296875 L 3.6875 -8.0625 L 9.25 -8.0625 L 9.25 -6.46875 L 3.6875 -6.46875 L 3.6875 -1.625 L 10.15625 -1.625 L 10.15625 0 L 1.796875 0 Z M 1.796875 -13.9375 "/></g></g></g><g fill="#afa75e" fill-opacity="1"><g transform="translate(201.206268, 106.526543)"><g><path d="M 10.078125 0 L 1.796875 0 L 1.796875 -13.9375 L 3.6875 -13.9375 L 3.6875 -1.6875 L 10.078125 -1.6875 Z M 10.078125 0 "/></g></g></g></svg>