<svg xmlns="http://www.w3.org/2000/svg" xmlns:xlink="http://www.w3.org/1999/xlink" width="400" zoomAndPan="magnify" viewBox="0 0 300 299.999988" height="400" preserveAspectRatio="xMidYMid meet" version="1.0"><defs><g/><clipPath id="b87dcaf434"><path d="M 173 69 L 213 69 L 213 117 L 173 117 Z M 173 69 " clip-rule="nonzero"/></clipPath><clipPath id="01264a484e"><path d="M 42.964844 54.550781 L 228.320312 -10.6875 L 283.101562 144.953125 L 97.746094 210.191406 Z M 42.964844 54.550781 " clip-rule="nonzero"/></clipPath><clipPath id="3285bb08b6"><path d="M 42.964844 54.550781 L 228.320312 -10.6875 L 283.101562 144.953125 L 97.746094 210.191406 Z M 42.964844 54.550781 " clip-rule="nonzero"/></clipPath><clipPath id="71788a4fb4"><path d="M 57 3 L 250 3 L 250 183 L 57 183 Z M 57 3 " clip-rule="nonzero"/></clipPath><clipPath id="d57151b4f6"><path d="M 42.964844 54.550781 L 228.320312 -10.6875 L 283.101562 144.953125 L 97.746094 210.191406 Z M 42.964844 54.550781 " clip-rule="nonzero"/></clipPath><clipPath id="3f6227dd6b"><path d="M 42.964844 54.550781 L 228.320312 -10.6875 L 283.101562 144.953125 L 97.746094 210.191406 Z M 42.964844 54.550781 " clip-rule="nonzero"/></clipPath></defs><rect x="-30" width="360" fill="#ffffff" y="-29.999999" height="359.999986" fill-opacity="1"/><rect x="-30" width="360" fill="#ffffff" y="-29.999999" height="359.999986" fill-opacity="1"/><rect x="-30" width="360" fill="#000000" y="-29.999999" height="359.999986" fill-opacity="1"/><g clip-path="url(#b87dcaf434)"><g clip-path="url(#01264a484e)"><g clip-path="url(#3285bb08b6)"><path fill="#afa75e" d="M 204.492188 81.324219 C 204.492188 81.324219 203.171875 84.085938 201.359375 87.878906 L 204.085938 91.902344 L 204.113281 91.839844 C 204.441406 91.035156 205.070312 91.351562 205.871094 91.683594 C 206.671875 92.011719 207.34375 92.230469 207.015625 93.03125 L 206.199219 95.023438 L 207.992188 97.671875 C 208.34375 97.082031 208.96875 97.269531 209.703125 97.574219 C 210.503906 97.902344 211.128906 98.230469 210.800781 99.03125 L 210.089844 100.773438 L 212.417969 104.210938 C 212.628906 104.519531 212.703125 105.058594 212.59375 105.414062 L 212.171875 106.730469 C 212.058594 107.082031 211.710938 107.207031 211.394531 107.007812 L 196.707031 97.632812 C 194.996094 101.210938 193.382812 104.59375 192.320312 106.8125 L 195.714844 112.773438 C 195.859375 113.03125 195.878906 113.324219 195.773438 113.585938 L 194.742188 116.105469 C 194.464844 116.785156 193.503906 116.882812 193.019531 116.285156 L 188.179688 111.925781 L 186.601562 114.59375 C 186.433594 115.003906 185.953125 115.191406 185.527344 115.019531 C 185.101562 114.84375 184.890625 114.371094 185.058594 113.964844 L 185.746094 111.175781 L 179.929688 110.910156 C 179.164062 110.996094 178.546875 110.25 178.824219 109.570312 L 179.855469 107.050781 C 179.964844 106.789062 180.1875 106.59375 180.46875 106.515625 L 186.269531 104.875 C 187.046875 102.621094 188.3125 98.9375 189.667969 95.003906 L 174.109375 91.503906 C 173.75 91.421875 173.589844 91.085938 173.761719 90.757812 L 174.59375 89.148438 C 174.761719 88.816406 175.199219 88.488281 175.5625 88.414062 L 178.59375 87.804688 L 179.292969 86.097656 C 179.621094 85.292969 180.296875 85.5 181.097656 85.828125 C 181.816406 86.125 182.386719 86.421875 182.261719 87.058594 L 185.402344 86.425781 L 186.105469 84.699219 C 186.433594 83.898438 187.109375 84.101562 187.910156 84.429688 C 188.636719 84.730469 189.210938 85.035156 189.070312 85.683594 L 193.15625 84.859375 C 194.550781 80.808594 195.582031 77.800781 195.621094 77.6875 C 196.214844 75.964844 197.132812 74.347656 198.316406 72.960938 C 198.910156 72.265625 199.574219 71.625 200.289062 71.058594 C 201.554688 70.0625 203.753906 68.015625 205.042969 70.152344 C 205.96875 71.6875 205.957031 74.152344 205.863281 75.890625 C 205.757812 77.769531 205.304688 79.625 204.492188 81.324219 " fill-opacity="1" fill-rule="nonzero"/></g></g></g><g clip-path="url(#71788a4fb4)"><g clip-path="url(#d57151b4f6)"><g clip-path="url(#3f6227dd6b)"><path fill="#afa75e" d="M 165.300781 14.617188 C 165.097656 14.347656 164.714844 14.292969 164.449219 14.496094 C 163.140625 15.480469 161.867188 16.539062 160.660156 17.644531 C 160.410156 17.875 160.394531 18.257812 160.621094 18.503906 C 160.789062 18.691406 161.050781 18.75 161.273438 18.671875 C 161.347656 18.644531 161.417969 18.601562 161.480469 18.546875 C 162.660156 17.464844 163.90625 16.429688 165.179688 15.46875 C 165.449219 15.265625 165.503906 14.886719 165.300781 14.617188 Z M 220.882812 124.269531 C 219.925781 125.644531 218.988281 126.972656 218.078125 128.246094 C 217.882812 128.523438 217.945312 128.902344 218.21875 129.097656 C 218.386719 129.21875 218.597656 129.242188 218.777344 129.175781 C 218.890625 129.136719 218.996094 129.0625 219.066406 128.957031 C 219.980469 127.679688 220.921875 126.34375 221.882812 124.964844 C 222.074219 124.691406 222.003906 124.308594 221.730469 124.117188 C 221.453125 123.925781 221.074219 123.992188 220.882812 124.269531 Z M 172.824219 9.335938 C 171.355469 10.058594 169.902344 10.859375 168.515625 11.71875 C 168.230469 11.894531 168.140625 12.269531 168.316406 12.558594 C 168.46875 12.804688 168.773438 12.90625 169.035156 12.8125 C 169.074219 12.796875 169.117188 12.78125 169.152344 12.753906 C 170.511719 11.921875 171.925781 11.136719 173.363281 10.429688 C 173.664062 10.28125 173.785156 9.914062 173.640625 9.613281 C 173.492188 9.3125 173.125 9.1875 172.824219 9.335938 Z M 209.371094 139.96875 C 208.160156 141.539062 207.351562 142.558594 207.09375 142.878906 L 206.355469 143.78125 C 206.144531 144.042969 206.179688 144.425781 206.445312 144.640625 C 206.613281 144.78125 206.835938 144.8125 207.03125 144.742188 C 207.132812 144.707031 207.226562 144.644531 207.296875 144.554688 L 208.042969 143.648438 C 208.304688 143.316406 209.117188 142.292969 210.335938 140.714844 C 210.542969 140.449219 210.492188 140.066406 210.226562 139.859375 C 209.960938 139.65625 209.578125 139.707031 209.371094 139.96875 Z M 158.046875 21.09375 C 157.796875 20.867188 157.410156 20.886719 157.183594 21.136719 C 156.085938 22.351562 155.035156 23.628906 154.054688 24.941406 C 153.851562 25.207031 153.90625 25.589844 154.175781 25.792969 C 154.347656 25.917969 154.558594 25.945312 154.742188 25.878906 C 154.851562 25.839844 154.953125 25.769531 155.027344 25.671875 C 155.988281 24.390625 157.015625 23.140625 158.085938 21.957031 C 158.3125 21.707031 158.292969 21.320312 158.046875 21.09375 Z M 215.222656 132.1875 C 214.1875 133.605469 213.214844 134.914062 212.324219 136.097656 C 212.121094 136.367188 212.175781 136.75 212.441406 136.953125 C 212.613281 137.078125 212.824219 137.105469 213.011719 137.039062 C 213.121094 137.003906 213.21875 136.929688 213.296875 136.832031 C 214.1875 135.644531 215.164062 134.328125 216.207031 132.914062 C 216.402344 132.640625 216.347656 132.257812 216.074219 132.058594 C 215.804688 131.859375 215.421875 131.917969 215.222656 132.1875 Z M 203.273438 147.554688 L 200.195312 151.332031 C 199.980469 151.589844 200.019531 151.976562 200.28125 152.1875 C 200.453125 152.328125 200.675781 152.359375 200.867188 152.292969 C 200.972656 152.253906 201.0625 152.191406 201.136719 152.101562 L 204.21875 148.328125 C 204.429688 148.066406 204.390625 147.683594 204.132812 147.46875 C 203.871094 147.257812 203.484375 147.292969 203.273438 147.554688 Z M 147.296875 37.261719 C 147.054688 37.03125 146.667969 37.039062 146.4375 37.285156 C 145.371094 38.40625 144.101562 39.28125 142.660156 39.886719 C 142.351562 40.015625 142.207031 40.371094 142.335938 40.679688 C 142.460938 40.980469 142.796875 41.128906 143.097656 41.023438 C 143.109375 41.019531 143.121094 41.011719 143.132812 41.007812 C 144.726562 40.339844 146.136719 39.371094 147.320312 38.125 C 147.550781 37.878906 147.542969 37.496094 147.296875 37.261719 Z M 173.878906 134.519531 C 172.855469 135.789062 171.792969 137.019531 170.722656 138.167969 C 170.492188 138.414062 170.503906 138.800781 170.753906 139.03125 C 170.921875 139.1875 171.164062 139.230469 171.371094 139.160156 C 171.460938 139.128906 171.542969 139.074219 171.613281 139 C 172.703125 137.828125 173.785156 136.578125 174.824219 135.285156 C 175.035156 135.023438 174.996094 134.636719 174.734375 134.425781 C 174.472656 134.214844 174.085938 134.257812 173.878906 134.519531 Z M 190.949219 162.652344 L 187.867188 166.425781 C 187.65625 166.6875 187.695312 167.070312 187.957031 167.28125 C 188.128906 167.421875 188.351562 167.453125 188.542969 167.386719 C 188.644531 167.347656 188.738281 167.285156 188.8125 167.199219 L 191.894531 163.421875 C 192.109375 163.164062 192.066406 162.777344 191.808594 162.566406 C 191.546875 162.351562 191.164062 162.390625 190.949219 162.652344 Z M 152.328125 29.652344 C 152.503906 29.367188 152.414062 28.992188 152.125 28.816406 C 151.839844 28.640625 151.464844 28.730469 151.289062 29.019531 C 150.433594 30.414062 149.636719 31.867188 148.917969 33.335938 C 148.765625 33.636719 148.890625 34.003906 149.195312 34.152344 C 149.347656 34.226562 149.515625 34.230469 149.664062 34.179688 C 149.8125 34.128906 149.9375 34.023438 150.007812 33.875 C 150.714844 32.441406 151.492188 31.019531 152.328125 29.652344 Z M 184.789062 170.199219 L 181.707031 173.972656 C 181.496094 174.234375 181.53125 174.617188 181.792969 174.832031 C 181.964844 174.96875 182.1875 175.003906 182.378906 174.933594 C 182.484375 174.898438 182.578125 174.832031 182.648438 174.746094 L 185.730469 170.96875 C 185.945312 170.710938 185.90625 170.324219 185.644531 170.113281 C 185.382812 169.902344 185 169.9375 184.789062 170.199219 Z M 184.070312 118.121094 C 183.355469 119.59375 182.609375 121.039062 181.855469 122.425781 C 181.695312 122.722656 181.800781 123.09375 182.097656 123.253906 C 182.253906 123.339844 182.433594 123.347656 182.589844 123.292969 C 182.726562 123.246094 182.847656 123.148438 182.921875 123.011719 C 183.6875 121.609375 184.445312 120.140625 185.164062 118.652344 C 185.3125 118.351562 185.1875 117.988281 184.882812 117.839844 C 184.582031 117.691406 184.21875 117.820312 184.070312 118.121094 Z M 179.429688 126.613281 C 178.570312 128.003906 177.679688 129.367188 176.777344 130.65625 C 176.582031 130.933594 176.648438 131.308594 176.921875 131.503906 C 177.089844 131.621094 177.296875 131.644531 177.476562 131.578125 C 177.59375 131.539062 177.695312 131.464844 177.773438 131.355469 C 178.691406 130.046875 179.59375 128.667969 180.464844 127.253906 C 180.640625 126.964844 180.550781 126.589844 180.265625 126.414062 C 179.980469 126.238281 179.605469 126.328125 179.429688 126.613281 Z M 197.113281 155.101562 L 194.03125 158.878906 C 193.820312 159.136719 193.859375 159.523438 194.117188 159.734375 C 194.289062 159.875 194.511719 159.90625 194.707031 159.839844 C 194.808594 159.800781 194.902344 159.742188 194.976562 159.648438 L 198.054688 155.878906 C 198.269531 155.613281 198.230469 155.230469 197.96875 155.019531 C 197.710938 154.804688 197.324219 154.84375 197.113281 155.101562 Z M 248.519531 62.292969 C 248.183594 62.269531 247.894531 62.527344 247.875 62.863281 C 247.773438 64.441406 247.613281 66.058594 247.390625 67.664062 C 247.34375 68 247.578125 68.304688 247.910156 68.351562 C 248.007812 68.367188 248.105469 68.355469 248.195312 68.324219 C 248.402344 68.25 248.5625 68.066406 248.59375 67.832031 C 248.820312 66.195312 248.988281 64.550781 249.089844 62.941406 C 249.109375 62.605469 248.855469 62.316406 248.519531 62.292969 Z M 224.578125 12.230469 C 224.292969 12.046875 223.917969 12.132812 223.734375 12.414062 C 223.554688 12.699219 223.636719 13.074219 223.917969 13.257812 C 225.269531 14.121094 226.589844 15.054688 227.847656 16.039062 C 228.019531 16.171875 228.238281 16.199219 228.425781 16.132812 C 228.53125 16.097656 228.628906 16.027344 228.703125 15.933594 C 228.910156 15.671875 228.863281 15.285156 228.597656 15.078125 C 227.308594 14.074219 225.957031 13.113281 224.578125 12.230469 Z M 247.285156 71.953125 C 246.957031 71.886719 246.636719 72.097656 246.566406 72.425781 C 246.246094 73.96875 245.867188 75.550781 245.4375 77.128906 C 245.347656 77.453125 245.539062 77.785156 245.863281 77.875 C 245.988281 77.910156 246.113281 77.902344 246.226562 77.863281 C 246.410156 77.796875 246.558594 77.648438 246.609375 77.449219 C 247.046875 75.847656 247.433594 74.242188 247.757812 72.675781 C 247.828125 72.347656 247.617188 72.023438 247.285156 71.953125 Z M 246.429688 43.003906 C 246.09375 43.09375 245.914062 43.425781 246.003906 43.75 C 246.417969 45.300781 246.777344 46.882812 247.0625 48.449219 C 247.121094 48.78125 247.4375 49.003906 247.769531 48.941406 C 247.804688 48.9375 247.835938 48.925781 247.863281 48.917969 C 248.140625 48.820312 248.3125 48.53125 248.261719 48.234375 C 247.96875 46.632812 247.605469 45.015625 247.179688 43.433594 C 247.089844 43.109375 246.753906 42.917969 246.429688 43.003906 Z M 215.832031 7.710938 C 215.519531 7.585938 215.164062 7.734375 215.039062 8.046875 C 214.914062 8.359375 215.0625 8.714844 215.375 8.84375 C 216.859375 9.441406 218.332031 10.117188 219.75 10.847656 C 219.90625 10.929688 220.078125 10.9375 220.234375 10.882812 C 220.375 10.832031 220.496094 10.730469 220.570312 10.585938 C 220.722656 10.289062 220.609375 9.921875 220.308594 9.765625 C 218.855469 9.015625 217.347656 8.324219 215.832031 7.710938 Z M 235.753906 21.839844 C 234.675781 20.609375 233.523438 19.414062 232.335938 18.292969 C 232.089844 18.0625 231.707031 18.070312 231.472656 18.316406 C 231.242188 18.558594 231.257812 18.945312 231.5 19.179688 C 232.664062 20.273438 233.785156 21.441406 234.839844 22.640625 C 235.007812 22.835938 235.273438 22.898438 235.5 22.816406 C 235.570312 22.792969 235.640625 22.753906 235.699219 22.699219 C 235.953125 22.476562 235.976562 22.09375 235.753906 21.839844 Z M 248.273438 52.5625 C 247.9375 52.589844 247.695312 52.890625 247.726562 53.226562 C 247.878906 54.8125 247.96875 56.433594 247.992188 58.039062 C 247.996094 58.375 248.273438 58.644531 248.609375 58.636719 C 248.679688 58.640625 248.746094 58.628906 248.804688 58.605469 C 249.042969 58.523438 249.214844 58.289062 249.210938 58.023438 C 249.1875 56.378906 249.09375 54.730469 248.9375 53.109375 C 248.90625 52.773438 248.609375 52.527344 248.273438 52.5625 Z M 240.527344 90.785156 C 239.890625 92.226562 239.203125 93.707031 238.484375 95.183594 C 238.335938 95.488281 238.460938 95.851562 238.765625 96 C 238.917969 96.074219 239.085938 96.082031 239.234375 96.027344 C 239.378906 95.976562 239.503906 95.871094 239.578125 95.71875 C 240.308594 94.230469 241 92.734375 241.640625 91.28125 C 241.777344 90.972656 241.636719 90.613281 241.328125 90.476562 C 241.023438 90.339844 240.664062 90.480469 240.527344 90.785156 Z M 201.667969 5.335938 C 201.886719 5.257812 202.046875 5.066406 202.074219 4.824219 C 202.105469 4.488281 201.863281 4.1875 201.53125 4.152344 C 199.902344 3.984375 198.246094 3.890625 196.609375 3.878906 C 196.273438 3.875 196 4.144531 195.996094 4.480469 C 195.996094 4.816406 196.265625 5.09375 196.601562 5.09375 C 198.199219 5.109375 199.816406 5.199219 201.40625 5.367188 C 201.496094 5.375 201.589844 5.363281 201.667969 5.335938 Z M 231.496094 107.964844 C 230.65625 109.359375 229.808594 110.738281 228.945312 112.105469 C 228.765625 112.390625 228.851562 112.765625 229.136719 112.945312 C 229.300781 113.050781 229.496094 113.0625 229.664062 113.003906 C 229.789062 112.960938 229.902344 112.875 229.976562 112.753906 C 230.839844 111.382812 231.695312 109.992188 232.539062 108.59375 C 232.710938 108.304688 232.617188 107.929688 232.332031 107.757812 C 232.042969 107.582031 231.667969 107.675781 231.496094 107.964844 Z M 244.03125 81.757812 C 243.535156 83.25 242.980469 84.78125 242.386719 86.3125 C 242.261719 86.625 242.417969 86.976562 242.730469 87.101562 C 242.871094 87.15625 243.023438 87.15625 243.15625 87.109375 C 243.316406 87.050781 243.453125 86.925781 243.519531 86.753906 C 244.121094 85.207031 244.683594 83.652344 245.1875 82.144531 C 245.292969 81.824219 245.121094 81.480469 244.800781 81.371094 C 244.484375 81.265625 244.136719 81.4375 244.03125 81.757812 Z M 226.320312 116.199219 L 226.191406 116.398438 C 225.339844 117.707031 224.480469 118.992188 223.632812 120.253906 C 223.445312 120.535156 223.519531 120.914062 223.796875 121.097656 C 223.960938 121.210938 224.164062 121.230469 224.339844 121.171875 C 224.460938 121.128906 224.566406 121.050781 224.640625 120.9375 C 225.496094 119.671875 226.355469 118.378906 227.210938 117.066406 L 227.34375 116.867188 C 227.523438 116.585938 227.445312 116.207031 227.164062 116.023438 C 226.878906 115.839844 226.503906 115.917969 226.320312 116.199219 Z M 182.011719 5.820312 C 180.441406 6.261719 178.863281 6.78125 177.335938 7.367188 C 177.023438 7.484375 176.867188 7.839844 176.988281 8.152344 C 177.105469 8.464844 177.453125 8.628906 177.773438 8.503906 C 179.265625 7.933594 180.804688 7.425781 182.339844 6.996094 C 182.351562 6.992188 182.367188 6.988281 182.378906 6.984375 C 182.679688 6.878906 182.847656 6.554688 182.761719 6.242188 C 182.671875 5.917969 182.332031 5.730469 182.011719 5.820312 Z M 236.285156 99.511719 C 235.527344 100.941406 234.746094 102.363281 233.945312 103.765625 C 233.78125 104.0625 233.882812 104.433594 234.175781 104.601562 C 234.335938 104.691406 234.519531 104.699219 234.679688 104.644531 C 234.8125 104.597656 234.929688 104.503906 235.003906 104.371094 C 235.808594 102.953125 236.59375 101.523438 237.359375 100.082031 C 237.515625 99.785156 237.40625 99.417969 237.109375 99.257812 C 236.808594 99.101562 236.441406 99.214844 236.285156 99.511719 Z M 211.210938 7.238281 C 211.386719 7.175781 211.535156 7.035156 211.589844 6.839844 C 211.6875 6.515625 211.503906 6.175781 211.179688 6.078125 C 209.613281 5.613281 208.007812 5.210938 206.402344 4.890625 C 206.070312 4.824219 205.75 5.039062 205.683594 5.371094 C 205.621094 5.699219 205.835938 6.019531 206.160156 6.085938 C 207.730469 6.398438 209.300781 6.789062 210.835938 7.25 C 210.964844 7.285156 211.089844 7.28125 211.210938 7.238281 Z M 129.179688 38.886719 C 129.34375 38.832031 129.480469 38.707031 129.546875 38.535156 C 129.667969 38.21875 129.515625 37.867188 129.199219 37.746094 C 127.675781 37.152344 126.101562 36.621094 124.53125 36.171875 C 124.207031 36.078125 123.871094 36.269531 123.777344 36.59375 C 123.6875 36.917969 123.875 37.253906 124.195312 37.34375 C 125.734375 37.785156 127.269531 38.300781 128.757812 38.882812 C 128.902344 38.9375 129.050781 38.933594 129.179688 38.886719 Z M 76.199219 126.625 C 75.957031 126.390625 75.574219 126.394531 75.335938 126.636719 C 75.101562 126.875 75.105469 127.257812 75.34375 127.496094 C 76.492188 128.625 77.710938 129.742188 78.96875 130.816406 C 79.140625 130.964844 79.367188 131 79.566406 130.929688 C 79.664062 130.894531 79.753906 130.835938 79.824219 130.75 C 80.042969 130.496094 80.015625 130.109375 79.757812 129.890625 C 78.523438 128.835938 77.324219 127.734375 76.199219 126.625 Z M 138.351562 41.941406 C 138.582031 41.859375 138.753906 41.636719 138.757812 41.375 C 138.761719 41.039062 138.492188 40.761719 138.15625 40.757812 C 136.605469 40.734375 135.101562 40.386719 133.691406 39.734375 C 133.386719 39.59375 133.023438 39.722656 132.878906 40.03125 C 132.742188 40.335938 132.871094 40.699219 133.179688 40.839844 C 134.746094 41.566406 136.414062 41.949219 138.136719 41.976562 C 138.214844 41.976562 138.285156 41.964844 138.351562 41.941406 Z M 91.582031 138.285156 C 91.292969 138.113281 90.917969 138.207031 90.746094 138.496094 C 90.574219 138.785156 90.667969 139.164062 90.960938 139.332031 C 92.328125 140.144531 93.765625 140.957031 95.230469 141.738281 C 95.386719 141.820312 95.566406 141.832031 95.71875 141.777344 C 95.859375 141.726562 95.980469 141.628906 96.054688 141.488281 C 96.214844 141.191406 96.097656 140.824219 95.804688 140.664062 C 94.351562 139.890625 92.933594 139.089844 91.582031 138.285156 Z M 62.609375 64.210938 C 61.90625 65.6875 61.265625 67.21875 60.703125 68.753906 C 60.585938 69.070312 60.75 69.417969 61.066406 69.535156 C 61.203125 69.585938 61.347656 69.582031 61.476562 69.539062 C 61.644531 69.480469 61.78125 69.351562 61.847656 69.171875 C 62.394531 67.671875 63.019531 66.179688 63.707031 64.734375 C 63.851562 64.429688 63.722656 64.066406 63.417969 63.921875 C 63.117188 63.777344 62.753906 63.90625 62.609375 64.210938 Z M 62.417969 107.605469 C 62.730469 107.476562 62.878906 107.121094 62.75 106.8125 C 62.363281 105.871094 62 104.910156 61.652344 103.933594 C 61.460938 103.382812 61.277344 102.832031 61.101562 102.28125 C 61 101.957031 60.660156 101.78125 60.339844 101.882812 C 60.027344 101.980469 59.839844 102.324219 59.941406 102.644531 C 60.121094 103.210938 60.308594 103.773438 60.503906 104.335938 C 60.851562 105.324219 61.230469 106.3125 61.625 107.273438 C 61.75 107.574219 62.085938 107.726562 62.390625 107.617188 C 62.398438 107.613281 62.410156 107.609375 62.417969 107.605469 Z M 59.230469 73.457031 C 58.8125 75.039062 58.464844 76.664062 58.199219 78.277344 C 58.144531 78.609375 58.371094 78.921875 58.699219 78.976562 C 58.804688 78.992188 58.910156 78.984375 59 78.953125 C 59.207031 78.878906 59.363281 78.703125 59.402344 78.476562 C 59.660156 76.902344 60 75.316406 60.40625 73.765625 C 60.492188 73.441406 60.296875 73.105469 59.972656 73.023438 C 59.648438 72.933594 59.316406 73.128906 59.230469 73.457031 Z M 83.53125 132.914062 C 83.261719 132.710938 82.878906 132.765625 82.679688 133.035156 C 82.476562 133.304688 82.53125 133.6875 82.800781 133.890625 C 84.078125 134.851562 85.429688 135.804688 86.808594 136.722656 C 86.972656 136.832031 87.171875 136.851562 87.347656 136.789062 C 87.46875 136.746094 87.574219 136.667969 87.652344 136.554688 C 87.835938 136.273438 87.761719 135.894531 87.480469 135.707031 C 86.121094 134.800781 84.792969 133.863281 83.53125 132.914062 Z M 64.765625 111.191406 C 64.613281 110.890625 64.242188 110.769531 63.949219 110.925781 C 63.648438 111.078125 63.53125 111.445312 63.683594 111.742188 C 64.425781 113.195312 65.242188 114.636719 66.109375 116.027344 C 66.261719 116.273438 66.5625 116.375 66.828125 116.28125 C 66.867188 116.265625 66.90625 116.246094 66.945312 116.222656 C 67.230469 116.046875 67.320312 115.667969 67.140625 115.382812 C 66.292969 114.023438 65.496094 112.613281 64.765625 111.191406 Z M 187.027344 5.914062 C 188.601562 5.628906 190.203125 5.414062 191.792969 5.277344 C 191.847656 5.273438 191.898438 5.261719 191.945312 5.246094 C 192.199219 5.15625 192.371094 4.902344 192.347656 4.621094 C 192.320312 4.285156 192.023438 4.035156 191.691406 4.066406 C 190.0625 4.203125 188.417969 4.421875 186.808594 4.714844 C 186.476562 4.773438 186.257812 5.09375 186.320312 5.425781 C 186.378906 5.753906 186.695312 5.976562 187.027344 5.914062 Z M 240.476562 30.441406 C 240.625 30.695312 240.933594 30.800781 241.203125 30.703125 C 241.238281 30.691406 241.273438 30.675781 241.308594 30.65625 C 241.597656 30.484375 241.695312 30.109375 241.523438 29.820312 C 240.695312 28.410156 239.785156 27.019531 238.828125 25.695312 C 238.632812 25.421875 238.25 25.359375 237.980469 25.558594 C 237.703125 25.753906 237.644531 26.136719 237.839844 26.410156 C 238.777344 27.703125 239.664062 29.058594 240.476562 30.441406 Z M 242.71875 34.699219 C 243.394531 36.144531 244.015625 37.640625 244.558594 39.152344 C 244.671875 39.464844 245.019531 39.628906 245.332031 39.519531 C 245.332031 39.519531 245.335938 39.519531 245.335938 39.519531 C 245.652344 39.402344 245.816406 39.054688 245.703125 38.738281 C 245.148438 37.195312 244.511719 35.660156 243.820312 34.183594 C 243.679688 33.878906 243.316406 33.75 243.011719 33.890625 C 242.707031 34.03125 242.574219 34.394531 242.71875 34.699219 Z M 65.652344 60.75 C 65.78125 60.703125 65.898438 60.613281 65.972656 60.484375 C 66.789062 59.113281 67.679688 57.761719 68.621094 56.46875 C 68.820312 56.195312 68.761719 55.816406 68.488281 55.617188 C 68.21875 55.417969 67.835938 55.476562 67.640625 55.75 C 66.675781 57.070312 65.761719 58.453125 64.925781 59.859375 C 64.753906 60.148438 64.851562 60.527344 65.136719 60.699219 C 65.300781 60.792969 65.488281 60.808594 65.652344 60.75 Z M 71.382812 52.886719 C 71.476562 52.855469 71.566406 52.796875 71.636719 52.714844 C 72.695312 51.519531 73.820312 50.355469 74.984375 49.261719 C 75.230469 49.03125 75.242188 48.644531 75.011719 48.402344 C 74.785156 48.15625 74.398438 48.144531 74.152344 48.375 C 72.960938 49.492188 71.804688 50.679688 70.722656 51.90625 C 70.5 52.160156 70.523438 52.546875 70.777344 52.769531 C 70.945312 52.921875 71.179688 52.957031 71.382812 52.886719 Z M 58.140625 88.699219 C 58.203125 88.695312 58.265625 88.683594 58.324219 88.664062 C 58.566406 88.578125 58.738281 88.34375 58.730469 88.074219 C 58.691406 86.476562 58.726562 84.855469 58.839844 83.257812 C 58.863281 82.925781 58.613281 82.632812 58.277344 82.609375 C 57.941406 82.585938 57.648438 82.835938 57.625 83.171875 C 57.511719 84.808594 57.472656 86.464844 57.511719 88.101562 C 57.523438 88.441406 57.800781 88.707031 58.140625 88.699219 Z M 59.402344 98.347656 C 59.425781 98.34375 59.453125 98.335938 59.476562 98.328125 C 59.761719 98.226562 59.9375 97.929688 59.871094 97.625 C 59.53125 96.0625 59.265625 94.464844 59.078125 92.875 C 59.035156 92.542969 58.730469 92.300781 58.398438 92.34375 C 58.066406 92.386719 57.824219 92.683594 57.867188 93.019531 C 58.058594 94.644531 58.332031 96.28125 58.679688 97.882812 C 58.75 98.210938 59.074219 98.417969 59.402344 98.347656 Z M 69.855469 119.367188 C 69.65625 119.097656 69.273438 119.039062 69.003906 119.242188 C 68.734375 119.441406 68.679688 119.820312 68.878906 120.09375 C 69.84375 121.394531 70.886719 122.679688 71.96875 123.917969 C 72.140625 124.113281 72.402344 124.175781 72.632812 124.09375 C 72.703125 124.070312 72.769531 124.027344 72.832031 123.976562 C 73.082031 123.757812 73.105469 123.371094 72.886719 123.117188 C 71.820312 121.902344 70.804688 120.640625 69.855469 119.367188 Z M 150.992188 151.519531 L 150.859375 151.566406 C 149.394531 152.082031 147.886719 152.523438 146.386719 152.878906 C 146.058594 152.953125 145.855469 153.285156 145.933594 153.613281 C 146.007812 153.941406 146.339844 154.144531 146.664062 154.066406 C 148.210938 153.699219 149.757812 153.246094 151.265625 152.714844 L 151.394531 152.667969 C 151.710938 152.558594 151.878906 152.210938 151.765625 151.894531 C 151.65625 151.574219 151.308594 151.40625 150.992188 151.519531 Z M 119.511719 36.238281 C 119.621094 36.261719 119.730469 36.25 119.824219 36.214844 C 120.023438 36.144531 120.179688 35.976562 120.222656 35.753906 C 120.285156 35.421875 120.066406 35.105469 119.734375 35.042969 C 118.125 34.742188 116.484375 34.515625 114.855469 34.367188 C 114.519531 34.335938 114.222656 34.582031 114.195312 34.917969 C 114.164062 35.253906 114.410156 35.550781 114.746094 35.582031 C 116.339844 35.726562 117.941406 35.949219 119.511719 36.238281 Z M 109.933594 34.152344 C 108.296875 34.15625 106.640625 34.242188 105.011719 34.402344 C 104.679688 34.433594 104.433594 34.734375 104.464844 35.070312 C 104.5 35.402344 104.796875 35.648438 105.132812 35.613281 C 106.722656 35.460938 108.339844 35.375 109.9375 35.371094 C 110.007812 35.371094 110.074219 35.359375 110.136719 35.335938 C 110.375 35.25 110.546875 35.023438 110.546875 34.757812 C 110.542969 34.421875 110.269531 34.152344 109.933594 34.152344 Z M 167.296875 141.558594 C 166.097656 142.652344 164.851562 143.6875 163.597656 144.640625 C 163.332031 144.84375 163.277344 145.226562 163.480469 145.496094 C 163.644531 145.710938 163.925781 145.785156 164.167969 145.703125 C 164.226562 145.679688 164.285156 145.652344 164.335938 145.609375 C 165.617188 144.636719 166.890625 143.578125 168.117188 142.460938 C 168.363281 142.234375 168.382812 141.847656 168.15625 141.597656 C 167.929688 141.351562 167.546875 141.332031 167.296875 141.558594 Z M 159.632812 147.363281 C 158.261719 148.207031 156.84375 148.984375 155.421875 149.667969 C 155.117188 149.816406 154.992188 150.179688 155.136719 150.484375 C 155.269531 150.765625 155.597656 150.894531 155.886719 150.792969 C 155.910156 150.785156 155.929688 150.777344 155.949219 150.769531 C 157.410156 150.0625 158.863281 149.269531 160.273438 148.398438 C 160.558594 148.222656 160.648438 147.847656 160.472656 147.5625 C 160.292969 147.273438 159.921875 147.183594 159.632812 147.363281 Z M 178.625 177.75 L 175.546875 181.519531 C 175.332031 181.78125 175.371094 182.164062 175.628906 182.378906 C 175.800781 182.519531 176.023438 182.550781 176.21875 182.480469 C 176.320312 182.445312 176.414062 182.382812 176.488281 182.292969 L 179.570312 178.519531 C 179.78125 178.257812 179.742188 177.875 179.484375 177.660156 C 179.222656 177.449219 178.835938 177.484375 178.625 177.75 Z M 141.65625 153.722656 C 140.078125 153.917969 138.464844 154.027344 136.863281 154.050781 C 136.527344 154.054688 136.261719 154.332031 136.265625 154.667969 C 136.269531 155.003906 136.546875 155.273438 136.882812 155.269531 C 138.527344 155.246094 140.183594 155.132812 141.808594 154.933594 C 141.851562 154.929688 141.894531 154.917969 141.933594 154.902344 C 142.199219 154.808594 142.371094 154.546875 142.335938 154.253906 C 142.296875 153.921875 141.992188 153.683594 141.65625 153.722656 Z M 118.097656 150.214844 C 117.777344 150.101562 117.433594 150.269531 117.320312 150.585938 C 117.210938 150.90625 117.378906 151.253906 117.695312 151.363281 C 119.238281 151.90625 120.777344 152.429688 122.316406 152.941406 C 122.449219 152.988281 122.585938 152.980469 122.710938 152.9375 C 122.882812 152.878906 123.023438 152.742188 123.085938 152.554688 C 123.191406 152.234375 123.019531 151.890625 122.699219 151.785156 C 121.167969 151.277344 119.632812 150.753906 118.097656 150.214844 Z M 100.136719 35.113281 C 98.535156 35.425781 96.925781 35.820312 95.351562 36.28125 C 95.035156 36.378906 94.84375 36.714844 94.9375 37.035156 C 95.03125 37.359375 95.371094 37.542969 95.695312 37.449219 C 97.230469 37 98.804688 36.617188 100.371094 36.3125 C 100.402344 36.304688 100.429688 36.296875 100.457031 36.289062 C 100.738281 36.1875 100.910156 35.898438 100.851562 35.597656 C 100.789062 35.265625 100.46875 35.050781 100.136719 35.113281 Z M 109.003906 146.789062 C 108.691406 146.660156 108.335938 146.8125 108.210938 147.125 C 108.085938 147.4375 108.234375 147.792969 108.546875 147.917969 C 110.058594 148.53125 111.578125 149.125 113.101562 149.695312 C 113.242188 149.75 113.386719 149.746094 113.515625 149.703125 C 113.683594 149.644531 113.820312 149.515625 113.882812 149.339844 C 114.003906 149.023438 113.84375 148.671875 113.527344 148.554688 C 112.015625 147.988281 110.503906 147.398438 109.003906 146.789062 Z M 82.769531 42.539062 C 82.589844 42.25 82.214844 42.167969 81.929688 42.347656 C 80.546875 43.222656 79.191406 44.175781 77.898438 45.175781 C 77.632812 45.382812 77.585938 45.765625 77.789062 46.03125 C 77.953125 46.246094 78.234375 46.320312 78.472656 46.234375 C 78.535156 46.210938 78.589844 46.179688 78.644531 46.140625 C 79.90625 45.160156 81.230469 44.234375 82.582031 43.378906 C 82.863281 43.195312 82.949219 42.820312 82.769531 42.539062 Z M 100.128906 142.863281 C 99.824219 142.714844 99.457031 142.839844 99.316406 143.144531 C 99.167969 143.449219 99.292969 143.8125 99.597656 143.960938 C 101.027344 144.652344 102.523438 145.339844 104.039062 146.011719 C 104.1875 146.078125 104.347656 146.078125 104.488281 146.03125 C 104.640625 145.976562 104.773438 145.859375 104.84375 145.699219 C 104.976562 145.390625 104.839844 145.03125 104.53125 144.894531 C 103.027344 144.234375 101.542969 143.546875 100.128906 142.863281 Z M 91.484375 38.226562 C 91.363281 37.914062 91.015625 37.75 90.695312 37.882812 C 89.171875 38.488281 87.660156 39.171875 86.207031 39.910156 C 85.910156 40.0625 85.789062 40.429688 85.941406 40.730469 C 86.082031 41.003906 86.402344 41.128906 86.683594 41.027344 C 86.710938 41.019531 86.734375 41.007812 86.761719 41 C 88.179688 40.273438 89.65625 39.609375 91.144531 39.019531 C 91.457031 38.894531 91.609375 38.539062 91.484375 38.226562 Z M 132.613281 154.519531 C 132.589844 154.765625 132.425781 154.960938 132.210938 155.039062 C 132.128906 155.066406 132.039062 155.078125 131.949219 155.066406 C 130.273438 154.90625 128.628906 154.65625 127.0625 154.316406 C 126.734375 154.246094 126.527344 153.921875 126.597656 153.59375 C 126.667969 153.261719 126.992188 153.054688 127.320312 153.125 C 128.839844 153.453125 130.4375 153.699219 132.066406 153.855469 C 132.402344 153.886719 132.644531 154.1875 132.613281 154.519531 " fill-opacity="1" fill-rule="nonzero"/></g></g></g><g fill="#ffde59" fill-opacity="1"><g transform="translate(5.150251, 260.441523)"><g><path d="M 10.933594 -0.898438 C 19.769531 -0.898438 28.90625 -10.183594 34.898438 -16.625 C 37.894531 -20.070312 40.890625 -23.515625 43.738281 -27.109375 C 46.582031 -30.554688 49.429688 -34.152344 52.273438 -37.746094 C 54.222656 -40.441406 56.316406 -43.136719 58.265625 -45.984375 C 60.210938 -48.679688 62.308594 -51.375 64.554688 -53.921875 C 65.90625 -55.570312 67.253906 -56.917969 68.449219 -58.566406 C 69.050781 -59.164062 68.898438 -60.210938 68.152344 -60.660156 C 68 -60.8125 67.851562 -60.8125 67.703125 -60.8125 C 67.402344 -60.8125 67.101562 -60.660156 66.652344 -60.210938 L 65.003906 -58.414062 C 60.960938 -53.773438 57.367188 -48.980469 53.621094 -44.035156 C 47.78125 -36.246094 41.640625 -28.609375 35.199219 -21.121094 C 29.65625 -14.078125 18.273438 -2.996094 8.988281 -2.996094 C 7.039062 -2.996094 5.542969 -3.894531 4.492188 -5.839844 C 4.34375 -6.289062 4.195312 -6.589844 4.042969 -7.039062 C 3.894531 -7.488281 3.59375 -7.9375 3.445312 -8.386719 C 2.398438 -11.984375 1.945312 -15.726562 2.398438 -19.472656 C 4.34375 -42.089844 17.375 -65.90625 34 -81.03125 C 36.246094 -82.980469 38.492188 -84.179688 40.890625 -84.925781 C 43.136719 -85.527344 44.933594 -86.273438 46.882812 -87.023438 C 47.179688 -87.171875 47.480469 -87.472656 47.929688 -87.621094 C 48.230469 -87.773438 48.53125 -87.921875 48.679688 -88.070312 C 49.277344 -88.371094 49.429688 -88.972656 49.277344 -89.871094 C 49.128906 -90.769531 48.679688 -91.21875 47.929688 -91.21875 C 46.582031 -91.21875 45.382812 -91.066406 44.1875 -90.617188 C 42.238281 -89.871094 40.292969 -88.820312 38.195312 -87.472656 C 36.695312 -86.425781 35.199219 -85.824219 33.851562 -85.527344 C 28.609375 -83.878906 23.816406 -82.378906 18.273438 -82.378906 C 16.925781 -82.378906 15.875 -82.679688 14.976562 -83.128906 C 14.527344 -84.925781 15.726562 -86.125 16.777344 -87.472656 C 22.765625 -96.308594 37.445312 -106.34375 48.230469 -107.84375 L 48.828125 -107.84375 C 49.578125 -107.84375 50.175781 -107.695312 50.476562 -107.246094 C 50.777344 -106.796875 50.777344 -106.496094 50.476562 -106.195312 C 50.027344 -105.894531 49.726562 -105.597656 49.578125 -105.296875 C 49.429688 -104.996094 49.128906 -104.699219 48.679688 -104.25 C 48.679688 -104.25 48.679688 -104.097656 48.53125 -103.949219 L 48.53125 -103.648438 C 48.679688 -103.5 48.980469 -103.5 49.128906 -103.351562 C 49.277344 -103.199219 49.277344 -103.199219 49.429688 -103.199219 C 51.226562 -103.648438 52.425781 -105.148438 52.273438 -106.796875 C 52.125 -108.59375 51.074219 -109.640625 49.429688 -109.941406 C 48.679688 -110.089844 48.082031 -110.238281 47.628906 -110.238281 C 46.882812 -110.238281 45.832031 -110.089844 44.785156 -109.789062 C 43.585938 -109.339844 42.6875 -109.042969 41.9375 -108.890625 C 31.15625 -105.445312 22.765625 -98.707031 15.578125 -90.167969 C 14.828125 -89.121094 14.078125 -88.070312 13.332031 -86.722656 C 11.683594 -83.726562 13.332031 -80.734375 16.777344 -80.132812 C 17.226562 -79.984375 17.824219 -79.984375 18.574219 -79.984375 L 20.96875 -79.984375 C 22.167969 -79.984375 23.367188 -80.132812 24.5625 -80.433594 C 25.613281 -80.582031 26.8125 -80.882812 27.859375 -81.03125 C 28.308594 -81.183594 28.609375 -81.332031 28.90625 -81.332031 C 29.058594 -81.332031 29.207031 -81.183594 29.355469 -80.882812 C 29.808594 -80.433594 29.207031 -80.132812 28.757812 -79.683594 C 13.78125 -64.707031 0.449219 -39.394531 0 -17.675781 C 0 -10.035156 2.546875 -0.898438 10.933594 -0.898438 Z M 10.933594 -0.898438 "/></g></g></g><g fill="#ffde59" fill-opacity="1"><g transform="translate(70.453198, 260.441523)"><g><path d="M -10.933594 -29.808594 C -9.886719 -29.957031 -9.285156 -30.105469 -8.238281 -30.554688 C -4.644531 -32.203125 -1.796875 -34.300781 0.75 -37.144531 L 3.445312 -40.292969 C 3.894531 -40.140625 4.34375 -39.84375 4.644531 -39.542969 C 4.792969 -39.09375 5.09375 -38.792969 5.390625 -38.644531 C 7.039062 -36.996094 8.238281 -36.996094 10.484375 -36.996094 C 13.480469 -36.996094 18.421875 -42.089844 20.21875 -44.335938 C 22.167969 -46.582031 23.964844 -48.828125 25.761719 -51.074219 C 27.558594 -53.324219 29.355469 -55.570312 31.304688 -57.816406 L 32.054688 -59.015625 C 32.203125 -59.613281 32.054688 -60.210938 31.605469 -60.660156 C 31.453125 -60.8125 31.15625 -60.960938 30.855469 -60.960938 C 30.554688 -60.960938 30.105469 -60.660156 29.507812 -59.914062 C 28.90625 -59.164062 28.457031 -58.714844 28.308594 -58.566406 C 26.8125 -56.765625 25.3125 -54.96875 23.964844 -53.171875 C 22.46875 -51.226562 20.96875 -49.429688 19.472656 -47.628906 C 16.476562 -44.636719 13.332031 -40.292969 9.4375 -38.945312 C 9.285156 -38.945312 9.136719 -38.945312 8.988281 -38.945312 C 8.835938 -38.792969 8.835938 -38.792969 8.6875 -38.792969 C 7.9375 -38.792969 7.339844 -39.242188 6.738281 -39.992188 C 5.691406 -41.640625 4.941406 -43.289062 6.589844 -45.085938 C 7.039062 -45.683594 7.488281 -46.28125 7.789062 -47.03125 C 8.089844 -47.78125 8.539062 -48.378906 8.988281 -48.980469 C 11.382812 -52.722656 13.78125 -56.46875 16.027344 -60.210938 C 18.273438 -63.957031 21.269531 -67.101562 24.714844 -69.949219 C 25.164062 -70.246094 25.164062 -70.847656 24.5625 -71.597656 C 24.414062 -71.746094 24.113281 -71.894531 23.964844 -71.894531 C 23.816406 -71.894531 23.664062 -71.894531 23.664062 -71.894531 C 23.515625 -71.746094 23.515625 -71.746094 23.367188 -71.746094 C 20.21875 -69.796875 16.925781 -65.15625 14.679688 -62.160156 C 13.332031 -60.210938 11.984375 -58.414062 10.785156 -56.617188 C 9.4375 -54.671875 8.238281 -52.875 6.890625 -50.925781 C 6.589844 -50.476562 6.289062 -50.027344 6.140625 -49.578125 C 5.839844 -49.128906 5.390625 -48.679688 4.941406 -48.53125 C 4.492188 -48.828125 4.34375 -49.128906 4.34375 -49.578125 C 4.34375 -49.878906 4.34375 -50.175781 4.195312 -50.476562 C 3.746094 -54.519531 4.042969 -58.117188 4.492188 -62.160156 C 4.492188 -62.460938 4.492188 -62.757812 4.492188 -63.207031 C 4.492188 -63.507812 4.34375 -63.808594 4.195312 -64.105469 C 4.042969 -64.257812 3.746094 -64.554688 3.296875 -64.707031 C 2.996094 -64.855469 2.695312 -64.554688 2.546875 -64.105469 C 2.398438 -63.65625 2.398438 -63.207031 2.246094 -62.757812 C 2.097656 -62.308594 2.097656 -61.859375 2.097656 -61.410156 C 1.648438 -56.019531 1.496094 -50.777344 2.246094 -45.535156 C 2.398438 -44.484375 2.246094 -43.738281 1.796875 -43.289062 C -0.597656 -39.84375 -3.445312 -36.695312 -7.039062 -34.449219 C -8.6875 -33.402344 -10.035156 -32.503906 -11.832031 -32.503906 L -12.582031 -32.503906 C -13.332031 -32.652344 -13.78125 -31.605469 -13.332031 -31.003906 C -12.882812 -30.257812 -11.984375 -29.808594 -10.933594 -29.808594 Z M -10.933594 -29.808594 "/></g></g></g><g fill="#ffde59" fill-opacity="1"><g transform="translate(99.210459, 260.441523)"><g><path d="M 4.792969 -31.605469 C 9.734375 -31.605469 17.675781 -38.34375 20.820312 -42.238281 C 22.917969 -44.636719 24.863281 -47.179688 26.660156 -49.878906 C 28.457031 -52.425781 30.257812 -55.121094 32.203125 -57.667969 C 32.652344 -58.117188 32.953125 -58.714844 32.953125 -59.3125 C 32.800781 -59.914062 32.503906 -60.363281 32.351562 -60.511719 C 32.203125 -60.660156 32.054688 -60.660156 31.902344 -60.660156 C 31.753906 -60.660156 31.453125 -60.511719 31.15625 -60.210938 L 28.457031 -56.917969 C 25.613281 -53.171875 22.917969 -49.277344 20.070312 -45.535156 C 17.226562 -41.339844 8.6875 -33.699219 3.296875 -33.699219 C 0.148438 -33.699219 -0.75 -37.746094 -0.75 -40.292969 C -0.898438 -42.539062 -0.597656 -44.335938 -0.148438 -46.582031 C 1.496094 -54.070312 5.691406 -64.554688 12.433594 -68.601562 C 12.882812 -68.898438 13.480469 -69.199219 14.078125 -69.648438 C 14.527344 -69.949219 15.128906 -70.097656 15.578125 -70.097656 C 16.027344 -70.097656 16.328125 -69.949219 16.476562 -69.796875 C 17.074219 -69.347656 17.226562 -68.601562 16.925781 -67.851562 C 16.476562 -67.101562 16.175781 -66.355469 16.027344 -65.605469 C 15.875 -64.707031 15.425781 -64.105469 14.527344 -63.808594 C 13.929688 -63.65625 13.78125 -63.359375 14.078125 -63.058594 C 14.230469 -62.757812 14.527344 -62.460938 14.828125 -62.308594 L 15.425781 -62.308594 C 16.027344 -62.308594 16.476562 -62.460938 16.777344 -62.910156 C 18.421875 -64.707031 18.722656 -66.953125 18.722656 -69.199219 C 18.722656 -69.5 18.574219 -70.097656 18.125 -70.847656 C 17.523438 -71.894531 16.625 -72.496094 15.425781 -72.496094 C 14.976562 -72.496094 14.679688 -72.496094 14.527344 -72.34375 C 4.195312 -69.648438 -2.097656 -53.472656 -2.996094 -43.585938 C -3.144531 -39.542969 -2.847656 -37.746094 -1.796875 -35.949219 C -0.449219 -33.101562 1.796875 -31.605469 4.792969 -31.605469 Z M 4.792969 -31.605469 "/></g></g></g><g fill="#ffde59" fill-opacity="1"><g transform="translate(128.716609, 260.441523)"><g><path d="M 17.972656 -35.199219 C 19.023438 -35.199219 19.769531 -35.5 20.519531 -36.246094 C 21.121094 -36.546875 21.570312 -36.996094 21.867188 -37.445312 C 23.066406 -38.792969 24.113281 -40.140625 25.164062 -41.488281 L 35.949219 -57.21875 C 36.097656 -57.367188 36.398438 -57.667969 36.546875 -57.964844 C 36.695312 -58.265625 36.847656 -58.566406 36.996094 -58.863281 C 37.445312 -59.464844 36.996094 -60.210938 36.398438 -60.660156 C 36.246094 -60.8125 36.097656 -60.8125 35.949219 -60.8125 C 35.648438 -60.8125 35.347656 -60.660156 35.199219 -60.363281 C 34.898438 -60.0625 34.601562 -59.613281 34.152344 -59.015625 C 32.953125 -57.367188 31.753906 -55.71875 30.707031 -54.070312 C 29.507812 -52.425781 28.308594 -50.777344 27.261719 -49.128906 C 26.363281 -47.78125 25.464844 -46.433594 24.5625 -45.234375 C 23.515625 -43.886719 22.617188 -42.539062 21.570312 -41.191406 C 20.820312 -39.84375 19.621094 -38.644531 18.125 -37.59375 C 17.972656 -37.445312 17.675781 -37.445312 17.375 -37.445312 C 16.925781 -37.445312 16.476562 -37.746094 16.328125 -38.34375 C 15.875 -40.742188 16.175781 -42.988281 16.625 -45.382812 C 17.824219 -51.972656 19.621094 -58.265625 21.867188 -64.707031 C 22.46875 -66.355469 22.917969 -68.152344 23.214844 -69.796875 C 23.515625 -70.847656 23.367188 -71.746094 22.765625 -72.792969 C 22.46875 -73.242188 22.019531 -73.394531 21.570312 -73.394531 C 21.121094 -73.394531 20.820312 -73.242188 20.671875 -73.09375 C 19.621094 -72.046875 18.871094 -71.296875 18.125 -70.246094 C 15.128906 -65.90625 12.582031 -61.5625 10.035156 -56.917969 L 5.390625 -48.828125 C 5.09375 -48.378906 4.792969 -47.929688 4.492188 -47.628906 C 4.195312 -47.179688 3.894531 -46.882812 3.746094 -46.433594 C 3.445312 -46.132812 3.144531 -46.132812 2.847656 -46.28125 C 2.695312 -46.433594 2.398438 -46.582031 2.246094 -47.03125 C 2.246094 -53.023438 3.296875 -59.164062 6.738281 -64.105469 C 7.039062 -64.855469 7.039062 -65.304688 6.738281 -65.605469 C 6.441406 -65.90625 6.140625 -66.054688 5.839844 -66.054688 C 5.390625 -66.054688 5.09375 -65.90625 4.792969 -65.605469 C 3.894531 -64.855469 3.144531 -63.808594 2.695312 -62.460938 C 0.597656 -57.816406 -0.449219 -52.875 -0.300781 -47.78125 C -0.300781 -46.582031 -0.148438 -45.535156 0.300781 -44.785156 C 1.046875 -43.585938 2.097656 -42.988281 3.144531 -42.988281 C 4.042969 -42.988281 4.792969 -43.289062 5.542969 -44.035156 C 6.289062 -44.785156 6.890625 -45.832031 7.640625 -46.882812 L 11.984375 -54.519531 C 13.929688 -58.117188 15.875 -61.710938 18.125 -65.304688 C 18.273438 -65.453125 18.273438 -65.753906 18.421875 -66.054688 C 18.574219 -66.203125 18.871094 -66.355469 19.320312 -66.355469 C 19.769531 -65.304688 19.320312 -64.554688 18.871094 -63.808594 C 17.226562 -59.015625 15.875 -54.222656 14.679688 -49.277344 C 14.078125 -46.433594 13.480469 -43.738281 13.628906 -40.890625 C 13.628906 -39.542969 13.929688 -38.492188 14.378906 -37.59375 C 15.128906 -35.949219 16.328125 -35.199219 17.972656 -35.199219 Z M 17.972656 -35.199219 "/></g></g></g><g fill="#ffde59" fill-opacity="1"><g transform="translate(162.416527, 260.441523)"><g><path d="M 7.640625 -16.777344 C 8.238281 -16.777344 8.6875 -16.925781 9.285156 -17.074219 C 11.832031 -17.972656 13.929688 -19.621094 15.277344 -22.167969 C 15.726562 -22.917969 15.578125 -23.515625 14.679688 -23.964844 C 14.527344 -24.113281 14.378906 -24.265625 14.230469 -24.265625 C 13.929688 -24.265625 13.628906 -23.964844 13.332031 -23.515625 C 12.28125 -22.167969 11.234375 -20.820312 9.585938 -19.769531 C 8.238281 -19.023438 7.191406 -18.722656 6.738281 -18.722656 C 5.691406 -18.722656 4.941406 -19.769531 4.492188 -22.019531 C 4.042969 -25.464844 4.042969 -28.90625 4.644531 -32.054688 C 6.890625 -44.1875 13.78125 -54.519531 21.417969 -64.105469 L 23.214844 -66.355469 C 23.816406 -67.101562 23.816406 -68 23.214844 -68.898438 C 23.066406 -69.347656 22.617188 -69.648438 22.019531 -69.648438 C 21.867188 -69.648438 21.417969 -69.5 20.820312 -69.347656 C 20.671875 -69.347656 20.519531 -69.347656 20.519531 -69.347656 C 20.371094 -69.199219 20.21875 -69.199219 20.070312 -69.199219 C 15.277344 -66.953125 10.785156 -64.855469 6.140625 -62.011719 C 5.839844 -62.757812 5.839844 -63.207031 6.289062 -63.65625 C 6.589844 -64.257812 6.890625 -64.855469 7.339844 -65.453125 C 7.640625 -65.90625 7.9375 -66.503906 8.238281 -66.953125 C 9.585938 -69.199219 10.785156 -71.445312 11.832031 -73.84375 C 12.132812 -75.191406 11.984375 -76.238281 11.535156 -77.289062 C 11.082031 -78.035156 10.335938 -78.484375 9.585938 -78.484375 C 9.136719 -78.484375 8.835938 -78.484375 8.539062 -78.335938 C 2.695312 -75.640625 -2.246094 -67.703125 -5.09375 -62.160156 C -5.242188 -61.859375 -5.542969 -61.261719 -5.691406 -60.511719 C -6.140625 -58.863281 -5.992188 -57.667969 -5.09375 -56.617188 C -4.34375 -55.867188 -3.445312 -55.417969 -2.398438 -55.417969 C -0.75 -55.417969 2.097656 -56.765625 3.296875 -57.515625 C 7.640625 -59.914062 11.984375 -62.160156 16.328125 -64.40625 C 16.476562 -64.554688 16.777344 -64.707031 17.074219 -64.855469 C 17.226562 -65.003906 17.523438 -65.003906 17.675781 -65.003906 C 17.675781 -65.003906 17.824219 -64.855469 18.273438 -64.707031 C 18.125 -64.257812 17.972656 -63.808594 17.675781 -63.359375 C 17.226562 -62.910156 16.925781 -62.609375 16.625 -62.160156 C 9.585938 -52.273438 3.894531 -43.4375 1.945312 -31.304688 C 1.496094 -27.710938 1.496094 -24.113281 2.546875 -20.519531 C 3.59375 -17.972656 5.242188 -16.777344 7.640625 -16.777344 Z M -2.996094 -57.816406 C -3.445312 -57.964844 -3.59375 -58.117188 -3.59375 -58.566406 C -2.398438 -63.507812 4.042969 -72.34375 8.539062 -75.191406 C 8.539062 -75.191406 8.6875 -75.191406 9.136719 -75.191406 C 9.285156 -75.042969 9.4375 -74.742188 9.4375 -74.589844 C 8.386719 -71.746094 7.039062 -69.347656 5.390625 -66.804688 C 4.941406 -65.753906 4.34375 -64.855469 3.746094 -63.957031 C 2.996094 -63.058594 2.398438 -62.160156 1.945312 -61.109375 C 0.898438 -59.164062 -0.75 -58.414062 -2.695312 -57.816406 Z M 5.992188 -62.011719 L 5.992188 -62.160156 L 6.140625 -62.011719 Z M 5.992188 -62.011719 "/></g></g></g><g fill="#ffde59" fill-opacity="1"><g transform="translate(186.380912, 260.441523)"><g><path d="M 13.480469 -27.558594 C 14.078125 -27.558594 14.527344 -27.710938 14.976562 -28.007812 C 19.621094 -31.453125 22.46875 -35.5 23.214844 -41.039062 C 23.367188 -42.988281 24.113281 -44.484375 25.613281 -45.832031 C 29.65625 -49.878906 34 -53.621094 38.644531 -57.066406 C 39.394531 -57.667969 39.992188 -58.117188 40.292969 -58.414062 C 40.890625 -59.015625 40.890625 -59.613281 40.441406 -60.363281 C 40.292969 -60.660156 40.140625 -60.8125 39.691406 -60.8125 C 39.542969 -60.8125 39.394531 -60.660156 38.945312 -60.511719 C 35.347656 -58.265625 28.90625 -52.425781 24.863281 -48.828125 C 24.414062 -48.378906 24.113281 -48.082031 23.964844 -47.78125 C 23.664062 -47.480469 23.214844 -47.179688 22.765625 -47.03125 L 22.316406 -47.332031 C 22.019531 -47.628906 21.867188 -47.929688 21.71875 -48.082031 C 19.320312 -52.425781 15.578125 -54.222656 10.785156 -54.671875 L 5.242188 -55.269531 C 3.445312 -55.417969 2.546875 -55.71875 3.59375 -57.964844 C 5.839844 -63.65625 14.527344 -72.945312 20.070312 -75.789062 C 20.820312 -76.089844 20.96875 -76.539062 20.671875 -77.136719 C 20.519531 -77.585938 20.070312 -77.886719 19.621094 -77.886719 L 19.171875 -77.886719 C 13.78125 -76.390625 5.839844 -66.953125 2.847656 -62.460938 C 2.546875 -61.859375 2.246094 -61.261719 1.945312 -60.8125 C 1.648438 -60.210938 1.347656 -59.613281 1.199219 -59.015625 C 0.449219 -57.066406 0.898438 -55.417969 2.546875 -54.070312 C 3.59375 -53.324219 4.792969 -52.875 5.839844 -52.722656 L 8.6875 -52.722656 C 9.886719 -52.574219 11.082031 -52.425781 12.28125 -52.273438 C 13.480469 -52.125 14.679688 -51.824219 15.875 -51.375 C 17.375 -50.925781 18.574219 -50.027344 19.621094 -48.828125 C 20.371094 -47.628906 20.820312 -46.730469 20.820312 -45.984375 C 20.820312 -45.234375 20.371094 -44.1875 19.320312 -42.988281 L 18.273438 -41.640625 C 16.027344 -39.09375 13.929688 -36.097656 12.28125 -32.953125 C 11.535156 -31.902344 11.234375 -31.003906 11.082031 -30.105469 C 10.933594 -29.207031 11.382812 -28.457031 12.132812 -28.007812 C 12.582031 -27.710938 13.03125 -27.558594 13.480469 -27.558594 Z M 15.578125 -32.203125 C 15.128906 -32.503906 15.128906 -32.800781 15.277344 -33.25 L 18.574219 -37.746094 C 18.722656 -38.195312 19.023438 -38.34375 19.472656 -38.34375 C 19.621094 -38.34375 19.769531 -38.34375 19.921875 -38.195312 C 19.171875 -37.144531 18.574219 -36.097656 17.972656 -35.050781 C 17.375 -34 16.625 -32.953125 15.578125 -32.203125 Z M 15.578125 -32.203125 "/></g></g></g><g fill="#ffde59" fill-opacity="1"><g transform="translate(223.675487, 260.441523)"><g><path d="M 0.148438 -37.445312 C 0.898438 -37.445312 1.496094 -37.59375 2.246094 -37.894531 C 2.695312 -38.042969 2.996094 -38.34375 3.296875 -38.492188 C 3.59375 -38.644531 3.894531 -38.945312 4.34375 -39.09375 C 5.542969 -39.84375 23.816406 -56.765625 23.816406 -59.164062 C 23.664062 -59.761719 23.367188 -60.660156 22.617188 -60.660156 C 22.46875 -60.660156 22.167969 -60.511719 22.019531 -60.363281 C 21.570312 -59.914062 21.269531 -59.464844 20.820312 -59.164062 C 20.371094 -58.714844 20.070312 -58.265625 19.621094 -57.816406 L 9.734375 -47.332031 C 7.789062 -45.085938 5.390625 -43.136719 2.695312 -41.488281 C 1.648438 -40.589844 0.75 -39.992188 -0.300781 -39.84375 L -0.898438 -39.691406 C -1.796875 -39.691406 -2.246094 -40.140625 -2.246094 -41.191406 C -2.398438 -42.6875 -2.246094 -44.335938 -1.945312 -45.984375 C -0.597656 -50.777344 1.199219 -55.269531 4.195312 -59.3125 C 4.492188 -59.761719 4.792969 -60.363281 5.242188 -61.109375 C 5.691406 -61.5625 4.792969 -62.757812 4.34375 -62.757812 C 3.894531 -62.910156 3.445312 -62.609375 3.144531 -62.160156 C -0.597656 -56.917969 -3.59375 -51.523438 -4.644531 -45.085938 C -4.792969 -44.035156 -4.792969 -42.835938 -4.644531 -41.640625 C -4.195312 -39.09375 -2.246094 -37.445312 0.148438 -37.445312 Z M 6.441406 -66.804688 C 6.738281 -66.652344 7.039062 -66.804688 7.339844 -67.101562 C 9.285156 -69.5 10.785156 -72.195312 12.433594 -75.042969 C 12.582031 -75.191406 12.582031 -75.492188 12.582031 -76.089844 C 12.433594 -76.238281 12.433594 -76.390625 12.433594 -76.539062 C 12.433594 -76.6875 12.28125 -76.6875 12.132812 -76.839844 C 11.984375 -76.988281 11.832031 -76.988281 11.683594 -76.988281 C 11.382812 -76.988281 11.082031 -76.839844 10.933594 -76.390625 C 10.484375 -75.640625 10.035156 -75.042969 9.734375 -74.292969 C 9.285156 -73.542969 8.835938 -72.945312 8.386719 -72.195312 C 7.789062 -71.148438 7.039062 -70.097656 6.289062 -68.898438 L 5.839844 -68 C 5.691406 -67.550781 5.992188 -67.253906 6.441406 -66.804688 Z M 6.441406 -66.804688 "/></g></g></g><g fill="#ffde59" fill-opacity="1"><g transform="translate(244.045213, 260.441523)"><g><path d="M 0.300781 -38.042969 C 0.898438 -38.042969 1.496094 -38.34375 1.945312 -38.792969 C 5.242188 -41.339844 9.136719 -51.226562 10.335938 -55.269531 C 10.632812 -56.46875 11.234375 -57.066406 11.984375 -57.066406 C 12.28125 -57.066406 12.582031 -57.066406 12.882812 -56.917969 C 17.074219 -56.917969 20.820312 -57.21875 24.863281 -58.863281 C 25.613281 -59.015625 25.761719 -59.464844 25.464844 -60.210938 C 25.3125 -60.660156 24.863281 -60.960938 24.113281 -60.960938 C 23.367188 -60.8125 22.765625 -60.511719 22.316406 -60.363281 C 19.769531 -59.3125 16.925781 -59.015625 14.078125 -58.863281 L 13.179688 -58.863281 C 11.832031 -58.863281 11.683594 -59.164062 11.535156 -60.960938 C 11.382812 -62.160156 11.082031 -63.207031 10.484375 -63.957031 C 10.035156 -64.707031 9.585938 -65.003906 9.136719 -64.855469 C 8.238281 -64.707031 7.339844 -64.554688 6.441406 -64.40625 C 5.542969 -64.257812 4.792969 -63.808594 4.042969 -63.058594 C -0.148438 -57.816406 -2.847656 -51.824219 -3.59375 -45.234375 C -3.746094 -43.738281 -3.59375 -42.386719 -3.144531 -41.039062 C -2.847656 -39.992188 -2.246094 -39.242188 -1.199219 -38.644531 C -0.597656 -38.195312 -0.148438 -38.042969 0.300781 -38.042969 Z M -0.75 -40.742188 C -1.796875 -41.9375 -1.347656 -43.4375 -1.199219 -44.785156 C -0.597656 -50.476562 1.496094 -55.71875 5.242188 -60.511719 C 5.390625 -60.660156 5.542969 -60.960938 5.992188 -61.109375 C 6.140625 -61.109375 6.441406 -60.960938 6.589844 -60.8125 C 8.835938 -58.566406 8.988281 -58.265625 7.9375 -55.269531 C 7.039062 -52.425781 2.246094 -40.742188 -0.75 -40.742188 Z M 9.136719 -60.511719 C 8.386719 -60.511719 8.238281 -60.8125 8.386719 -61.5625 C 8.539062 -62.011719 8.835938 -62.308594 9.136719 -62.160156 C 9.285156 -62.160156 9.4375 -61.859375 9.4375 -61.410156 C 9.4375 -60.960938 9.285156 -60.660156 9.136719 -60.511719 Z M 9.136719 -60.511719 "/></g></g></g><g fill="#ffde59" fill-opacity="1"><g transform="translate(266.212257, 260.441523)"><g><path d="M 1.945312 -31.902344 C 2.695312 -31.902344 3.296875 -32.351562 3.445312 -33.25 C 3.59375 -33.699219 3.894531 -34.449219 4.042969 -35.5 C 4.941406 -39.394531 9.4375 -58.566406 12.28125 -60.511719 C 12.433594 -59.914062 12.582031 -59.3125 12.433594 -58.714844 C 12.28125 -58.117188 12.28125 -57.515625 12.28125 -57.066406 C 11.832031 -53.773438 11.984375 -50.328125 12.582031 -46.882812 C 13.03125 -44.636719 14.078125 -42.238281 16.625 -42.238281 C 17.375 -42.238281 17.972656 -42.386719 18.574219 -42.6875 C 23.964844 -46.132812 29.507812 -53.621094 33.101562 -58.863281 C 33.25 -59.015625 33.402344 -59.3125 33.402344 -59.464844 C 33.550781 -59.914062 33.402344 -60.511719 32.953125 -60.960938 C 32.800781 -61.109375 32.652344 -61.109375 32.503906 -61.109375 C 32.203125 -61.109375 31.902344 -60.960938 31.605469 -60.660156 C 30.40625 -59.015625 29.207031 -57.515625 28.007812 -55.867188 C 26.0625 -53.171875 19.769531 -45.832031 16.777344 -44.335938 C 16.625 -44.1875 16.476562 -44.1875 16.175781 -44.1875 C 15.726562 -44.1875 15.425781 -44.484375 15.277344 -45.085938 C 14.828125 -46.582031 14.527344 -47.929688 14.527344 -49.128906 C 14.078125 -54.519531 14.828125 -59.613281 15.578125 -64.855469 L 16.027344 -69.050781 C 16.027344 -69.949219 15.726562 -70.546875 15.277344 -70.996094 C 15.128906 -71.148438 14.976562 -71.296875 14.527344 -71.296875 C 14.078125 -71.296875 13.929688 -71.148438 13.78125 -70.996094 C 9.886719 -65.15625 5.242188 -50.925781 3.445312 -44.1875 L 2.546875 -41.191406 L 2.246094 -41.191406 C 1.945312 -41.488281 1.796875 -41.640625 1.796875 -41.640625 L 1.796875 -44.1875 C 2.546875 -53.171875 4.34375 -61.5625 7.9375 -69.949219 L 8.386719 -70.996094 C 8.386719 -71.597656 8.089844 -72.046875 7.488281 -72.34375 C 7.339844 -72.34375 7.339844 -72.34375 7.191406 -72.496094 C 7.039062 -72.496094 6.738281 -72.34375 6.289062 -71.894531 L 4.941406 -69.050781 C 3.144531 -64.707031 1.945312 -60.210938 0.898438 -55.570312 C -0.449219 -49.277344 -1.046875 -42.988281 -0.75 -36.695312 C -0.75 -35.5 -0.75 -34.449219 -0.148438 -33.25 C 0.148438 -32.351562 0.898438 -31.902344 1.945312 -31.902344 Z M 1.945312 -31.902344 "/></g></g></g><g fill="#ffffff" fill-opacity="1"><g transform="translate(4.488287, 259.77956)"><g><path d="M 10.933594 -0.898438 C 19.769531 -0.898438 28.90625 -10.183594 34.898438 -16.625 C 37.894531 -20.070312 40.890625 -23.515625 43.738281 -27.109375 C 46.582031 -30.554688 49.429688 -34.152344 52.273438 -37.746094 C 54.222656 -40.441406 56.316406 -43.136719 58.265625 -45.984375 C 60.210938 -48.679688 62.308594 -51.375 64.554688 -53.921875 C 65.90625 -55.570312 67.253906 -56.917969 68.449219 -58.566406 C 69.050781 -59.164062 68.898438 -60.210938 68.152344 -60.660156 C 68 -60.8125 67.851562 -60.8125 67.703125 -60.8125 C 67.402344 -60.8125 67.101562 -60.660156 66.652344 -60.210938 L 65.003906 -58.414062 C 60.960938 -53.773438 57.367188 -48.980469 53.621094 -44.035156 C 47.78125 -36.246094 41.640625 -28.609375 35.199219 -21.121094 C 29.65625 -14.078125 18.273438 -2.996094 8.988281 -2.996094 C 7.039062 -2.996094 5.542969 -3.894531 4.492188 -5.839844 C 4.34375 -6.289062 4.195312 -6.589844 4.042969 -7.039062 C 3.894531 -7.488281 3.59375 -7.9375 3.445312 -8.386719 C 2.398438 -11.984375 1.945312 -15.726562 2.398438 -19.472656 C 4.34375 -42.089844 17.375 -65.90625 34 -81.03125 C 36.246094 -82.980469 38.492188 -84.179688 40.890625 -84.925781 C 43.136719 -85.527344 44.933594 -86.273438 46.882812 -87.023438 C 47.179688 -87.171875 47.480469 -87.472656 47.929688 -87.621094 C 48.230469 -87.773438 48.53125 -87.921875 48.679688 -88.070312 C 49.277344 -88.371094 49.429688 -88.972656 49.277344 -89.871094 C 49.128906 -90.769531 48.679688 -91.21875 47.929688 -91.21875 C 46.582031 -91.21875 45.382812 -91.066406 44.1875 -90.617188 C 42.238281 -89.871094 40.292969 -88.820312 38.195312 -87.472656 C 36.695312 -86.425781 35.199219 -85.824219 33.851562 -85.527344 C 28.609375 -83.878906 23.816406 -82.378906 18.273438 -82.378906 C 16.925781 -82.378906 15.875 -82.679688 14.976562 -83.128906 C 14.527344 -84.925781 15.726562 -86.125 16.777344 -87.472656 C 22.765625 -96.308594 37.445312 -106.34375 48.230469 -107.84375 L 48.828125 -107.84375 C 49.578125 -107.84375 50.175781 -107.695312 50.476562 -107.246094 C 50.777344 -106.796875 50.777344 -106.496094 50.476562 -106.195312 C 50.027344 -105.894531 49.726562 -105.597656 49.578125 -105.296875 C 49.429688 -104.996094 49.128906 -104.699219 48.679688 -104.25 C 48.679688 -104.25 48.679688 -104.097656 48.53125 -103.949219 L 48.53125 -103.648438 C 48.679688 -103.5 48.980469 -103.5 49.128906 -103.351562 C 49.277344 -103.199219 49.277344 -103.199219 49.429688 -103.199219 C 51.226562 -103.648438 52.425781 -105.148438 52.273438 -106.796875 C 52.125 -108.59375 51.074219 -109.640625 49.429688 -109.941406 C 48.679688 -110.089844 48.082031 -110.238281 47.628906 -110.238281 C 46.882812 -110.238281 45.832031 -110.089844 44.785156 -109.789062 C 43.585938 -109.339844 42.6875 -109.042969 41.9375 -108.890625 C 31.15625 -105.445312 22.765625 -98.707031 15.578125 -90.167969 C 14.828125 -89.121094 14.078125 -88.070312 13.332031 -86.722656 C 11.683594 -83.726562 13.332031 -80.734375 16.777344 -80.132812 C 17.226562 -79.984375 17.824219 -79.984375 18.574219 -79.984375 L 20.96875 -79.984375 C 22.167969 -79.984375 23.367188 -80.132812 24.5625 -80.433594 C 25.613281 -80.582031 26.8125 -80.882812 27.859375 -81.03125 C 28.308594 -81.183594 28.609375 -81.332031 28.90625 -81.332031 C 29.058594 -81.332031 29.207031 -81.183594 29.355469 -80.882812 C 29.808594 -80.433594 29.207031 -80.132812 28.757812 -79.683594 C 13.78125 -64.707031 0.449219 -39.394531 0 -17.675781 C 0 -10.035156 2.546875 -0.898438 10.933594 -0.898438 Z M 10.933594 -0.898438 "/></g></g></g><g fill="#ffffff" fill-opacity="1"><g transform="translate(69.791233, 259.77956)"><g><path d="M -10.933594 -29.808594 C -9.886719 -29.957031 -9.285156 -30.105469 -8.238281 -30.554688 C -4.644531 -32.203125 -1.796875 -34.300781 0.75 -37.144531 L 3.445312 -40.292969 C 3.894531 -40.140625 4.34375 -39.84375 4.644531 -39.542969 C 4.792969 -39.09375 5.09375 -38.792969 5.390625 -38.644531 C 7.039062 -36.996094 8.238281 -36.996094 10.484375 -36.996094 C 13.480469 -36.996094 18.421875 -42.089844 20.21875 -44.335938 C 22.167969 -46.582031 23.964844 -48.828125 25.761719 -51.074219 C 27.558594 -53.324219 29.355469 -55.570312 31.304688 -57.816406 L 32.054688 -59.015625 C 32.203125 -59.613281 32.054688 -60.210938 31.605469 -60.660156 C 31.453125 -60.8125 31.15625 -60.960938 30.855469 -60.960938 C 30.554688 -60.960938 30.105469 -60.660156 29.507812 -59.914062 C 28.90625 -59.164062 28.457031 -58.714844 28.308594 -58.566406 C 26.8125 -56.765625 25.3125 -54.96875 23.964844 -53.171875 C 22.46875 -51.226562 20.96875 -49.429688 19.472656 -47.628906 C 16.476562 -44.636719 13.332031 -40.292969 9.4375 -38.945312 C 9.285156 -38.945312 9.136719 -38.945312 8.988281 -38.945312 C 8.835938 -38.792969 8.835938 -38.792969 8.6875 -38.792969 C 7.9375 -38.792969 7.339844 -39.242188 6.738281 -39.992188 C 5.691406 -41.640625 4.941406 -43.289062 6.589844 -45.085938 C 7.039062 -45.683594 7.488281 -46.28125 7.789062 -47.03125 C 8.089844 -47.78125 8.539062 -48.378906 8.988281 -48.980469 C 11.382812 -52.722656 13.78125 -56.46875 16.027344 -60.210938 C 18.273438 -63.957031 21.269531 -67.101562 24.714844 -69.949219 C 25.164062 -70.246094 25.164062 -70.847656 24.5625 -71.597656 C 24.414062 -71.746094 24.113281 -71.894531 23.964844 -71.894531 C 23.816406 -71.894531 23.664062 -71.894531 23.664062 -71.894531 C 23.515625 -71.746094 23.515625 -71.746094 23.367188 -71.746094 C 20.21875 -69.796875 16.925781 -65.15625 14.679688 -62.160156 C 13.332031 -60.210938 11.984375 -58.414062 10.785156 -56.617188 C 9.4375 -54.671875 8.238281 -52.875 6.890625 -50.925781 C 6.589844 -50.476562 6.289062 -50.027344 6.140625 -49.578125 C 5.839844 -49.128906 5.390625 -48.679688 4.941406 -48.53125 C 4.492188 -48.828125 4.34375 -49.128906 4.34375 -49.578125 C 4.34375 -49.878906 4.34375 -50.175781 4.195312 -50.476562 C 3.746094 -54.519531 4.042969 -58.117188 4.492188 -62.160156 C 4.492188 -62.460938 4.492188 -62.757812 4.492188 -63.207031 C 4.492188 -63.507812 4.34375 -63.808594 4.195312 -64.105469 C 4.042969 -64.257812 3.746094 -64.554688 3.296875 -64.707031 C 2.996094 -64.855469 2.695312 -64.554688 2.546875 -64.105469 C 2.398438 -63.65625 2.398438 -63.207031 2.246094 -62.757812 C 2.097656 -62.308594 2.097656 -61.859375 2.097656 -61.410156 C 1.648438 -56.019531 1.496094 -50.777344 2.246094 -45.535156 C 2.398438 -44.484375 2.246094 -43.738281 1.796875 -43.289062 C -0.597656 -39.84375 -3.445312 -36.695312 -7.039062 -34.449219 C -8.6875 -33.402344 -10.035156 -32.503906 -11.832031 -32.503906 L -12.582031 -32.503906 C -13.332031 -32.652344 -13.78125 -31.605469 -13.332031 -31.003906 C -12.882812 -30.257812 -11.984375 -29.808594 -10.933594 -29.808594 Z M -10.933594 -29.808594 "/></g></g></g><g fill="#ffffff" fill-opacity="1"><g transform="translate(98.548494, 259.77956)"><g><path d="M 4.792969 -31.605469 C 9.734375 -31.605469 17.675781 -38.34375 20.820312 -42.238281 C 22.917969 -44.636719 24.863281 -47.179688 26.660156 -49.878906 C 28.457031 -52.425781 30.257812 -55.121094 32.203125 -57.667969 C 32.652344 -58.117188 32.953125 -58.714844 32.953125 -59.3125 C 32.800781 -59.914062 32.503906 -60.363281 32.351562 -60.511719 C 32.203125 -60.660156 32.054688 -60.660156 31.902344 -60.660156 C 31.753906 -60.660156 31.453125 -60.511719 31.15625 -60.210938 L 28.457031 -56.917969 C 25.613281 -53.171875 22.917969 -49.277344 20.070312 -45.535156 C 17.226562 -41.339844 8.6875 -33.699219 3.296875 -33.699219 C 0.148438 -33.699219 -0.75 -37.746094 -0.75 -40.292969 C -0.898438 -42.539062 -0.597656 -44.335938 -0.148438 -46.582031 C 1.496094 -54.070312 5.691406 -64.554688 12.433594 -68.601562 C 12.882812 -68.898438 13.480469 -69.199219 14.078125 -69.648438 C 14.527344 -69.949219 15.128906 -70.097656 15.578125 -70.097656 C 16.027344 -70.097656 16.328125 -69.949219 16.476562 -69.796875 C 17.074219 -69.347656 17.226562 -68.601562 16.925781 -67.851562 C 16.476562 -67.101562 16.175781 -66.355469 16.027344 -65.605469 C 15.875 -64.707031 15.425781 -64.105469 14.527344 -63.808594 C 13.929688 -63.65625 13.78125 -63.359375 14.078125 -63.058594 C 14.230469 -62.757812 14.527344 -62.460938 14.828125 -62.308594 L 15.425781 -62.308594 C 16.027344 -62.308594 16.476562 -62.460938 16.777344 -62.910156 C 18.421875 -64.707031 18.722656 -66.953125 18.722656 -69.199219 C 18.722656 -69.5 18.574219 -70.097656 18.125 -70.847656 C 17.523438 -71.894531 16.625 -72.496094 15.425781 -72.496094 C 14.976562 -72.496094 14.679688 -72.496094 14.527344 -72.34375 C 4.195312 -69.648438 -2.097656 -53.472656 -2.996094 -43.585938 C -3.144531 -39.542969 -2.847656 -37.746094 -1.796875 -35.949219 C -0.449219 -33.101562 1.796875 -31.605469 4.792969 -31.605469 Z M 4.792969 -31.605469 "/></g></g></g><g fill="#ffffff" fill-opacity="1"><g transform="translate(128.054645, 259.77956)"><g><path d="M 17.972656 -35.199219 C 19.023438 -35.199219 19.769531 -35.5 20.519531 -36.246094 C 21.121094 -36.546875 21.570312 -36.996094 21.867188 -37.445312 C 23.066406 -38.792969 24.113281 -40.140625 25.164062 -41.488281 L 35.949219 -57.21875 C 36.097656 -57.367188 36.398438 -57.667969 36.546875 -57.964844 C 36.695312 -58.265625 36.847656 -58.566406 36.996094 -58.863281 C 37.445312 -59.464844 36.996094 -60.210938 36.398438 -60.660156 C 36.246094 -60.8125 36.097656 -60.8125 35.949219 -60.8125 C 35.648438 -60.8125 35.347656 -60.660156 35.199219 -60.363281 C 34.898438 -60.0625 34.601562 -59.613281 34.152344 -59.015625 C 32.953125 -57.367188 31.753906 -55.71875 30.707031 -54.070312 C 29.507812 -52.425781 28.308594 -50.777344 27.261719 -49.128906 C 26.363281 -47.78125 25.464844 -46.433594 24.5625 -45.234375 C 23.515625 -43.886719 22.617188 -42.539062 21.570312 -41.191406 C 20.820312 -39.84375 19.621094 -38.644531 18.125 -37.59375 C 17.972656 -37.445312 17.675781 -37.445312 17.375 -37.445312 C 16.925781 -37.445312 16.476562 -37.746094 16.328125 -38.34375 C 15.875 -40.742188 16.175781 -42.988281 16.625 -45.382812 C 17.824219 -51.972656 19.621094 -58.265625 21.867188 -64.707031 C 22.46875 -66.355469 22.917969 -68.152344 23.214844 -69.796875 C 23.515625 -70.847656 23.367188 -71.746094 22.765625 -72.792969 C 22.46875 -73.242188 22.019531 -73.394531 21.570312 -73.394531 C 21.121094 -73.394531 20.820312 -73.242188 20.671875 -73.09375 C 19.621094 -72.046875 18.871094 -71.296875 18.125 -70.246094 C 15.128906 -65.90625 12.582031 -61.5625 10.035156 -56.917969 L 5.390625 -48.828125 C 5.09375 -48.378906 4.792969 -47.929688 4.492188 -47.628906 C 4.195312 -47.179688 3.894531 -46.882812 3.746094 -46.433594 C 3.445312 -46.132812 3.144531 -46.132812 2.847656 -46.28125 C 2.695312 -46.433594 2.398438 -46.582031 2.246094 -47.03125 C 2.246094 -53.023438 3.296875 -59.164062 6.738281 -64.105469 C 7.039062 -64.855469 7.039062 -65.304688 6.738281 -65.605469 C 6.441406 -65.90625 6.140625 -66.054688 5.839844 -66.054688 C 5.390625 -66.054688 5.09375 -65.90625 4.792969 -65.605469 C 3.894531 -64.855469 3.144531 -63.808594 2.695312 -62.460938 C 0.597656 -57.816406 -0.449219 -52.875 -0.300781 -47.78125 C -0.300781 -46.582031 -0.148438 -45.535156 0.300781 -44.785156 C 1.046875 -43.585938 2.097656 -42.988281 3.144531 -42.988281 C 4.042969 -42.988281 4.792969 -43.289062 5.542969 -44.035156 C 6.289062 -44.785156 6.890625 -45.832031 7.640625 -46.882812 L 11.984375 -54.519531 C 13.929688 -58.117188 15.875 -61.710938 18.125 -65.304688 C 18.273438 -65.453125 18.273438 -65.753906 18.421875 -66.054688 C 18.574219 -66.203125 18.871094 -66.355469 19.320312 -66.355469 C 19.769531 -65.304688 19.320312 -64.554688 18.871094 -63.808594 C 17.226562 -59.015625 15.875 -54.222656 14.679688 -49.277344 C 14.078125 -46.433594 13.480469 -43.738281 13.628906 -40.890625 C 13.628906 -39.542969 13.929688 -38.492188 14.378906 -37.59375 C 15.128906 -35.949219 16.328125 -35.199219 17.972656 -35.199219 Z M 17.972656 -35.199219 "/></g></g></g><g fill="#ffffff" fill-opacity="1"><g transform="translate(161.754563, 259.77956)"><g><path d="M 7.640625 -16.777344 C 8.238281 -16.777344 8.6875 -16.925781 9.285156 -17.074219 C 11.832031 -17.972656 13.929688 -19.621094 15.277344 -22.167969 C 15.726562 -22.917969 15.578125 -23.515625 14.679688 -23.964844 C 14.527344 -24.113281 14.378906 -24.265625 14.230469 -24.265625 C 13.929688 -24.265625 13.628906 -23.964844 13.332031 -23.515625 C 12.28125 -22.167969 11.234375 -20.820312 9.585938 -19.769531 C 8.238281 -19.023438 7.191406 -18.722656 6.738281 -18.722656 C 5.691406 -18.722656 4.941406 -19.769531 4.492188 -22.019531 C 4.042969 -25.464844 4.042969 -28.90625 4.644531 -32.054688 C 6.890625 -44.1875 13.78125 -54.519531 21.417969 -64.105469 L 23.214844 -66.355469 C 23.816406 -67.101562 23.816406 -68 23.214844 -68.898438 C 23.066406 -69.347656 22.617188 -69.648438 22.019531 -69.648438 C 21.867188 -69.648438 21.417969 -69.5 20.820312 -69.347656 C 20.671875 -69.347656 20.519531 -69.347656 20.519531 -69.347656 C 20.371094 -69.199219 20.21875 -69.199219 20.070312 -69.199219 C 15.277344 -66.953125 10.785156 -64.855469 6.140625 -62.011719 C 5.839844 -62.757812 5.839844 -63.207031 6.289062 -63.65625 C 6.589844 -64.257812 6.890625 -64.855469 7.339844 -65.453125 C 7.640625 -65.90625 7.9375 -66.503906 8.238281 -66.953125 C 9.585938 -69.199219 10.785156 -71.445312 11.832031 -73.84375 C 12.132812 -75.191406 11.984375 -76.238281 11.535156 -77.289062 C 11.082031 -78.035156 10.335938 -78.484375 9.585938 -78.484375 C 9.136719 -78.484375 8.835938 -78.484375 8.539062 -78.335938 C 2.695312 -75.640625 -2.246094 -67.703125 -5.09375 -62.160156 C -5.242188 -61.859375 -5.542969 -61.261719 -5.691406 -60.511719 C -6.140625 -58.863281 -5.992188 -57.667969 -5.09375 -56.617188 C -4.34375 -55.867188 -3.445312 -55.417969 -2.398438 -55.417969 C -0.75 -55.417969 2.097656 -56.765625 3.296875 -57.515625 C 7.640625 -59.914062 11.984375 -62.160156 16.328125 -64.40625 C 16.476562 -64.554688 16.777344 -64.707031 17.074219 -64.855469 C 17.226562 -65.003906 17.523438 -65.003906 17.675781 -65.003906 C 17.675781 -65.003906 17.824219 -64.855469 18.273438 -64.707031 C 18.125 -64.257812 17.972656 -63.808594 17.675781 -63.359375 C 17.226562 -62.910156 16.925781 -62.609375 16.625 -62.160156 C 9.585938 -52.273438 3.894531 -43.4375 1.945312 -31.304688 C 1.496094 -27.710938 1.496094 -24.113281 2.546875 -20.519531 C 3.59375 -17.972656 5.242188 -16.777344 7.640625 -16.777344 Z M -2.996094 -57.816406 C -3.445312 -57.964844 -3.59375 -58.117188 -3.59375 -58.566406 C -2.398438 -63.507812 4.042969 -72.34375 8.539062 -75.191406 C 8.539062 -75.191406 8.6875 -75.191406 9.136719 -75.191406 C 9.285156 -75.042969 9.4375 -74.742188 9.4375 -74.589844 C 8.386719 -71.746094 7.039062 -69.347656 5.390625 -66.804688 C 4.941406 -65.753906 4.34375 -64.855469 3.746094 -63.957031 C 2.996094 -63.058594 2.398438 -62.160156 1.945312 -61.109375 C 0.898438 -59.164062 -0.75 -58.414062 -2.695312 -57.816406 Z M 5.992188 -62.011719 L 5.992188 -62.160156 L 6.140625 -62.011719 Z M 5.992188 -62.011719 "/></g></g></g><g fill="#ffffff" fill-opacity="1"><g transform="translate(185.718947, 259.77956)"><g><path d="M 13.480469 -27.558594 C 14.078125 -27.558594 14.527344 -27.710938 14.976562 -28.007812 C 19.621094 -31.453125 22.46875 -35.5 23.214844 -41.039062 C 23.367188 -42.988281 24.113281 -44.484375 25.613281 -45.832031 C 29.65625 -49.878906 34 -53.621094 38.644531 -57.066406 C 39.394531 -57.667969 39.992188 -58.117188 40.292969 -58.414062 C 40.890625 -59.015625 40.890625 -59.613281 40.441406 -60.363281 C 40.292969 -60.660156 40.140625 -60.8125 39.691406 -60.8125 C 39.542969 -60.8125 39.394531 -60.660156 38.945312 -60.511719 C 35.347656 -58.265625 28.90625 -52.425781 24.863281 -48.828125 C 24.414062 -48.378906 24.113281 -48.082031 23.964844 -47.78125 C 23.664062 -47.480469 23.214844 -47.179688 22.765625 -47.03125 L 22.316406 -47.332031 C 22.019531 -47.628906 21.867188 -47.929688 21.71875 -48.082031 C 19.320312 -52.425781 15.578125 -54.222656 10.785156 -54.671875 L 5.242188 -55.269531 C 3.445312 -55.417969 2.546875 -55.71875 3.59375 -57.964844 C 5.839844 -63.65625 14.527344 -72.945312 20.070312 -75.789062 C 20.820312 -76.089844 20.96875 -76.539062 20.671875 -77.136719 C 20.519531 -77.585938 20.070312 -77.886719 19.621094 -77.886719 L 19.171875 -77.886719 C 13.78125 -76.390625 5.839844 -66.953125 2.847656 -62.460938 C 2.546875 -61.859375 2.246094 -61.261719 1.945312 -60.8125 C 1.648438 -60.210938 1.347656 -59.613281 1.199219 -59.015625 C 0.449219 -57.066406 0.898438 -55.417969 2.546875 -54.070312 C 3.59375 -53.324219 4.792969 -52.875 5.839844 -52.722656 L 8.6875 -52.722656 C 9.886719 -52.574219 11.082031 -52.425781 12.28125 -52.273438 C 13.480469 -52.125 14.679688 -51.824219 15.875 -51.375 C 17.375 -50.925781 18.574219 -50.027344 19.621094 -48.828125 C 20.371094 -47.628906 20.820312 -46.730469 20.820312 -45.984375 C 20.820312 -45.234375 20.371094 -44.1875 19.320312 -42.988281 L 18.273438 -41.640625 C 16.027344 -39.09375 13.929688 -36.097656 12.28125 -32.953125 C 11.535156 -31.902344 11.234375 -31.003906 11.082031 -30.105469 C 10.933594 -29.207031 11.382812 -28.457031 12.132812 -28.007812 C 12.582031 -27.710938 13.03125 -27.558594 13.480469 -27.558594 Z M 15.578125 -32.203125 C 15.128906 -32.503906 15.128906 -32.800781 15.277344 -33.25 L 18.574219 -37.746094 C 18.722656 -38.195312 19.023438 -38.34375 19.472656 -38.34375 C 19.621094 -38.34375 19.769531 -38.34375 19.921875 -38.195312 C 19.171875 -37.144531 18.574219 -36.097656 17.972656 -35.050781 C 17.375 -34 16.625 -32.953125 15.578125 -32.203125 Z M 15.578125 -32.203125 "/></g></g></g><g fill="#ffffff" fill-opacity="1"><g transform="translate(223.013523, 259.77956)"><g><path d="M 0.148438 -37.445312 C 0.898438 -37.445312 1.496094 -37.59375 2.246094 -37.894531 C 2.695312 -38.042969 2.996094 -38.34375 3.296875 -38.492188 C 3.59375 -38.644531 3.894531 -38.945312 4.34375 -39.09375 C 5.542969 -39.84375 23.816406 -56.765625 23.816406 -59.164062 C 23.664062 -59.761719 23.367188 -60.660156 22.617188 -60.660156 C 22.46875 -60.660156 22.167969 -60.511719 22.019531 -60.363281 C 21.570312 -59.914062 21.269531 -59.464844 20.820312 -59.164062 C 20.371094 -58.714844 20.070312 -58.265625 19.621094 -57.816406 L 9.734375 -47.332031 C 7.789062 -45.085938 5.390625 -43.136719 2.695312 -41.488281 C 1.648438 -40.589844 0.75 -39.992188 -0.300781 -39.84375 L -0.898438 -39.691406 C -1.796875 -39.691406 -2.246094 -40.140625 -2.246094 -41.191406 C -2.398438 -42.6875 -2.246094 -44.335938 -1.945312 -45.984375 C -0.597656 -50.777344 1.199219 -55.269531 4.195312 -59.3125 C 4.492188 -59.761719 4.792969 -60.363281 5.242188 -61.109375 C 5.691406 -61.5625 4.792969 -62.757812 4.34375 -62.757812 C 3.894531 -62.910156 3.445312 -62.609375 3.144531 -62.160156 C -0.597656 -56.917969 -3.59375 -51.523438 -4.644531 -45.085938 C -4.792969 -44.035156 -4.792969 -42.835938 -4.644531 -41.640625 C -4.195312 -39.09375 -2.246094 -37.445312 0.148438 -37.445312 Z M 6.441406 -66.804688 C 6.738281 -66.652344 7.039062 -66.804688 7.339844 -67.101562 C 9.285156 -69.5 10.785156 -72.195312 12.433594 -75.042969 C 12.582031 -75.191406 12.582031 -75.492188 12.582031 -76.089844 C 12.433594 -76.238281 12.433594 -76.390625 12.433594 -76.539062 C 12.433594 -76.6875 12.28125 -76.6875 12.132812 -76.839844 C 11.984375 -76.988281 11.832031 -76.988281 11.683594 -76.988281 C 11.382812 -76.988281 11.082031 -76.839844 10.933594 -76.390625 C 10.484375 -75.640625 10.035156 -75.042969 9.734375 -74.292969 C 9.285156 -73.542969 8.835938 -72.945312 8.386719 -72.195312 C 7.789062 -71.148438 7.039062 -70.097656 6.289062 -68.898438 L 5.839844 -68 C 5.691406 -67.550781 5.992188 -67.253906 6.441406 -66.804688 Z M 6.441406 -66.804688 "/></g></g></g><g fill="#ffffff" fill-opacity="1"><g transform="translate(243.383249, 259.77956)"><g><path d="M 0.300781 -38.042969 C 0.898438 -38.042969 1.496094 -38.34375 1.945312 -38.792969 C 5.242188 -41.339844 9.136719 -51.226562 10.335938 -55.269531 C 10.632812 -56.46875 11.234375 -57.066406 11.984375 -57.066406 C 12.28125 -57.066406 12.582031 -57.066406 12.882812 -56.917969 C 17.074219 -56.917969 20.820312 -57.21875 24.863281 -58.863281 C 25.613281 -59.015625 25.761719 -59.464844 25.464844 -60.210938 C 25.3125 -60.660156 24.863281 -60.960938 24.113281 -60.960938 C 23.367188 -60.8125 22.765625 -60.511719 22.316406 -60.363281 C 19.769531 -59.3125 16.925781 -59.015625 14.078125 -58.863281 L 13.179688 -58.863281 C 11.832031 -58.863281 11.683594 -59.164062 11.535156 -60.960938 C 11.382812 -62.160156 11.082031 -63.207031 10.484375 -63.957031 C 10.035156 -64.707031 9.585938 -65.003906 9.136719 -64.855469 C 8.238281 -64.707031 7.339844 -64.554688 6.441406 -64.40625 C 5.542969 -64.257812 4.792969 -63.808594 4.042969 -63.058594 C -0.148438 -57.816406 -2.847656 -51.824219 -3.59375 -45.234375 C -3.746094 -43.738281 -3.59375 -42.386719 -3.144531 -41.039062 C -2.847656 -39.992188 -2.246094 -39.242188 -1.199219 -38.644531 C -0.597656 -38.195312 -0.148438 -38.042969 0.300781 -38.042969 Z M -0.75 -40.742188 C -1.796875 -41.9375 -1.347656 -43.4375 -1.199219 -44.785156 C -0.597656 -50.476562 1.496094 -55.71875 5.242188 -60.511719 C 5.390625 -60.660156 5.542969 -60.960938 5.992188 -61.109375 C 6.140625 -61.109375 6.441406 -60.960938 6.589844 -60.8125 C 8.835938 -58.566406 8.988281 -58.265625 7.9375 -55.269531 C 7.039062 -52.425781 2.246094 -40.742188 -0.75 -40.742188 Z M 9.136719 -60.511719 C 8.386719 -60.511719 8.238281 -60.8125 8.386719 -61.5625 C 8.539062 -62.011719 8.835938 -62.308594 9.136719 -62.160156 C 9.285156 -62.160156 9.4375 -61.859375 9.4375 -61.410156 C 9.4375 -60.960938 9.285156 -60.660156 9.136719 -60.511719 Z M 9.136719 -60.511719 "/></g></g></g><g fill="#ffffff" fill-opacity="1"><g transform="translate(265.550293, 259.77956)"><g><path d="M 1.945312 -31.902344 C 2.695312 -31.902344 3.296875 -32.351562 3.445312 -33.25 C 3.59375 -33.699219 3.894531 -34.449219 4.042969 -35.5 C 4.941406 -39.394531 9.4375 -58.566406 12.28125 -60.511719 C 12.433594 -59.914062 12.582031 -59.3125 12.433594 -58.714844 C 12.28125 -58.117188 12.28125 -57.515625 12.28125 -57.066406 C 11.832031 -53.773438 11.984375 -50.328125 12.582031 -46.882812 C 13.03125 -44.636719 14.078125 -42.238281 16.625 -42.238281 C 17.375 -42.238281 17.972656 -42.386719 18.574219 -42.6875 C 23.964844 -46.132812 29.507812 -53.621094 33.101562 -58.863281 C 33.25 -59.015625 33.402344 -59.3125 33.402344 -59.464844 C 33.550781 -59.914062 33.402344 -60.511719 32.953125 -60.960938 C 32.800781 -61.109375 32.652344 -61.109375 32.503906 -61.109375 C 32.203125 -61.109375 31.902344 -60.960938 31.605469 -60.660156 C 30.40625 -59.015625 29.207031 -57.515625 28.007812 -55.867188 C 26.0625 -53.171875 19.769531 -45.832031 16.777344 -44.335938 C 16.625 -44.1875 16.476562 -44.1875 16.175781 -44.1875 C 15.726562 -44.1875 15.425781 -44.484375 15.277344 -45.085938 C 14.828125 -46.582031 14.527344 -47.929688 14.527344 -49.128906 C 14.078125 -54.519531 14.828125 -59.613281 15.578125 -64.855469 L 16.027344 -69.050781 C 16.027344 -69.949219 15.726562 -70.546875 15.277344 -70.996094 C 15.128906 -71.148438 14.976562 -71.296875 14.527344 -71.296875 C 14.078125 -71.296875 13.929688 -71.148438 13.78125 -70.996094 C 9.886719 -65.15625 5.242188 -50.925781 3.445312 -44.1875 L 2.546875 -41.191406 L 2.246094 -41.191406 C 1.945312 -41.488281 1.796875 -41.640625 1.796875 -41.640625 L 1.796875 -44.1875 C 2.546875 -53.171875 4.34375 -61.5625 7.9375 -69.949219 L 8.386719 -70.996094 C 8.386719 -71.597656 8.089844 -72.046875 7.488281 -72.34375 C 7.339844 -72.34375 7.339844 -72.34375 7.191406 -72.496094 C 7.039062 -72.496094 6.738281 -72.34375 6.289062 -71.894531 L 4.941406 -69.050781 C 3.144531 -64.707031 1.945312 -60.210938 0.898438 -55.570312 C -0.449219 -49.277344 -1.046875 -42.988281 -0.75 -36.695312 C -0.75 -35.5 -0.75 -34.449219 -0.148438 -33.25 C 0.148438 -32.351562 0.898438 -31.902344 1.945312 -31.902344 Z M 1.945312 -31.902344 "/></g></g></g><g fill="#afa75e" fill-opacity="1"><g transform="translate(154.293466, 261.479011)"><g><path d="M 0.171875 -11.6875 L 8.921875 -11.6875 L 8.921875 -10.28125 L 5.34375 -10.28125 L 5.34375 0 L 3.75 0 L 3.75 -10.28125 L 0.171875 -10.28125 Z M 0.171875 -11.6875 "/></g></g></g><g fill="#afa75e" fill-opacity="1"><g transform="translate(172.17333, 261.479011)"><g><path d="M 8.3125 0.203125 L 6.859375 -2.96875 C 6.492188 -3.757812 6.03125 -4.320312 5.46875 -4.65625 C 4.914062 -4.988281 4.207031 -5.15625 3.34375 -5.15625 L 3.09375 -5.15625 L 3.09375 0 L 1.5 0 L 1.5 -11.640625 C 2.101562 -11.703125 2.664062 -11.742188 3.1875 -11.765625 C 3.71875 -11.796875 4.296875 -11.8125 4.921875 -11.8125 C 5.628906 -11.8125 6.25 -11.734375 6.78125 -11.578125 C 7.320312 -11.429688 7.769531 -11.21875 8.125 -10.9375 C 8.476562 -10.664062 8.75 -10.335938 8.9375 -9.953125 C 9.125 -9.578125 9.21875 -9.160156 9.21875 -8.703125 C 9.21875 -7.898438 8.972656 -7.25 8.484375 -6.75 C 8.003906 -6.25 7.304688 -5.878906 6.390625 -5.640625 C 6.609375 -5.535156 6.8125 -5.421875 7 -5.296875 C 7.195312 -5.171875 7.378906 -5.015625 7.546875 -4.828125 C 7.710938 -4.648438 7.875 -4.429688 8.03125 -4.171875 C 8.195312 -3.910156 8.363281 -3.597656 8.53125 -3.234375 L 9.796875 -0.5 Z M 4.921875 -10.484375 C 4.546875 -10.484375 4.207031 -10.476562 3.90625 -10.46875 C 3.601562 -10.457031 3.332031 -10.4375 3.09375 -10.40625 L 3.09375 -6.484375 L 4.921875 -6.484375 C 5.722656 -6.484375 6.375 -6.660156 6.875 -7.015625 C 7.375 -7.378906 7.625 -7.894531 7.625 -8.5625 C 7.625 -9.113281 7.390625 -9.570312 6.921875 -9.9375 C 6.453125 -10.300781 5.785156 -10.484375 4.921875 -10.484375 Z M 4.921875 -10.484375 "/></g></g></g><g fill="#afa75e" fill-opacity="1"><g transform="translate(191.254687, 261.479011)"><g><path d="M 0.171875 -0.421875 L 4.734375 -11.6875 L 6.46875 -11.6875 L 10.984375 -0.421875 L 9.53125 0.171875 L 8.234375 -3.171875 L 2.8125 -3.171875 L 1.515625 0.140625 Z M 3.328125 -4.5 L 7.703125 -4.5 L 5.53125 -10.109375 Z M 3.328125 -4.5 "/></g></g></g><g fill="#afa75e" fill-opacity="1"><g transform="translate(211.187106, 261.479011)"><g><path d="M 0.171875 -11.265625 L 1.71875 -11.859375 L 5.390625 -1.734375 L 9.078125 -11.8125 L 10.515625 -11.265625 L 6.234375 0 L 4.453125 0 Z M 0.171875 -11.265625 "/></g></g></g><g fill="#afa75e" fill-opacity="1"><g transform="translate(230.652275, 261.479011)"><g><path d="M 1.5 -11.6875 L 8.515625 -11.6875 L 8.515625 -10.3125 L 3.09375 -10.3125 L 3.09375 -6.765625 L 7.765625 -6.765625 L 7.765625 -5.421875 L 3.09375 -5.421875 L 3.09375 -1.375 L 8.515625 -1.375 L 8.515625 0 L 1.5 0 Z M 1.5 -11.6875 "/></g></g></g><g fill="#afa75e" fill-opacity="1"><g transform="translate(248.699005, 261.479011)"><g><path d="M 8.4375 0 L 1.5 0 L 1.5 -11.6875 L 3.09375 -11.6875 L 3.09375 -1.421875 L 8.4375 -1.421875 Z M 8.4375 0 "/></g></g></g></svg>